KodeMono-Regular.ufo
<glyph name="exclam" format="2">
  <advance width="1200"/>
  <unicode hex="0021"/>
  <outline>
    <contour>
      <point x="703" y="141" type="line"/>
      <point x="703" y="-42" type="line"/>
      <point x="497" y="-42" type="line"/>
      <point x="497" y="141" type="line"/>
    </contour>
    <contour>
      <point x="520" y="385" type="line" name=".hr01"/>
      <point x="520" y="1393" type="line"/>
      <point x="684" y="1393" type="line"/>
      <point x="684" y="385" type="line"/>
    </contour>
  </outline>
</glyph>
<glyph name="quotedbl" format="2">
  <advance width="1200"/>
  <unicode hex="0022"/>
  <outline>
    <contour>
      <point x="340" y="960" type="line"/>
      <point x="340" y="1490" type="line"/>
      <point x="500" y="1490" type="line"/>
      <point x="500" y="960" type="line"/>
    </contour>
    <contour>
      <point x="700" y="960" type="line"/>
      <point x="700" y="1490" type="line"/>
      <point x="860" y="1490" type="line"/>
      <point x="860" y="960" type="line"/>
    </contour>
  </outline>
</glyph>
<glyph name="dollar" format="2">
  <advance width="1200"/>
  <unicode hex="0024"/>
  <outline>
    <contour>
      <point x="832" y="144" type="line"/>
      <point x="880" y="185" type="line"/>
      <point x="880" y="525" type="line"/>
      <point x="820" y="609" type="line"/>
      <point x="320" y="609" type="line"/>
      <point x="160" y="847" type="line"/>
      <point x="160" y="1180" type="line"/>
      <point x="320" y="1346" type="line"/>
      <point x="520" y="1346" type="line"/>
      <point x="520" y="1637" type="line"/>
      <point x="684" y="1637" type="line"/>
      <point x="684" y="1346" type="line"/>
      <point x="880" y="1346" type="line"/>
      <point x="986" y="1183" type="line"/>
      <point x="884" y="1083" type="line"/>
      <point x="803" y="1202" type="line"/>
      <point x="379" y="1202" type="line"/>
      <point x="320" y="1139" type="line"/>
      <point x="320" y="868" type="line"/>
      <point x="398" y="753" type="line"/>
      <point x="899" y="753" type="line"/>
      <point x="1040" y="541" type="line"/>
      <point x="1040" y="145" type="line"/>
      <point x="900" y="0" type="line"/>
      <point x="684" y="0" type="line"/>
      <point x="684" y="-288" type="line"/>
      <point x="520" y="-288" type="line"/>
      <point x="520" y="0" type="line"/>
      <point x="247" y="0" type="line"/>
      <point x="160" y="123" type="line"/>
      <point x="260" y="228" type="line"/>
      <point x="322" y="144" type="line"/>
    </contour>
  </outline>
</glyph>
<glyph name="percent" format="2">
  <advance width="1200"/>
  <unicode hex="0025"/>
  <outline>
    <contour>
      <point x="231" y="1167" type="line"/>
      <point x="365" y="1167" type="line"/>
      <point x="460" y="1074" type="line"/>
      <point x="460" y="939" type="line"/>
      <point x="365" y="847" type="line"/>
      <point x="231" y="847" type="line"/>
      <point x="140" y="938" type="line"/>
      <point x="140" y="1075" type="line"/>
    </contour>
    <contour>
      <point x="920" y="1313" type="line"/>
      <point x="1080" y="1313" type="line"/>
      <point x="1080" y="1062" type="line"/>
      <point x="280" y="239" type="line"/>
      <point x="280" y="40" type="line"/>
      <point x="120" y="40" type="line"/>
      <point x="120" y="278" type="line"/>
      <point x="920" y="1101" type="line"/>
    </contour>
    <contour>
      <point x="831" y="490" type="line"/>
      <point x="965" y="490" type="line"/>
      <point x="1060" y="397" type="line"/>
      <point x="1060" y="262" type="line"/>
      <point x="965" y="170" type="line"/>
      <point x="831" y="170" type="line"/>
      <point x="740" y="261" type="line"/>
      <point x="740" y="398" type="line"/>
    </contour>
  </outline>
</glyph>
<glyph name="quotesingle" format="2">
  <advance width="1200"/>
  <unicode hex="0027"/>
  <outline>
    <contour>
      <point x="520" y="960" type="line"/>
      <point x="520" y="1490" type="line"/>
      <point x="680" y="1490" type="line"/>
      <point x="680" y="960" type="line"/>
    </contour>
  </outline>
</glyph>
<glyph name="parenleft" format="2">
  <advance width="1200"/>
  <unicode hex="0028"/>
  <outline>
    <contour>
      <point x="780" y="1632" type="line"/>
      <point x="882" y="1530" type="line"/>
      <point x="440" y="1074" type="line"/>
      <point x="440" y="222" type="line"/>
      <point x="882" y="-234" type="line"/>
      <point x="780" y="-336" type="line"/>
      <point x="280" y="180" type="line"/>
      <point x="280" y="1116" type="line"/>
    </contour>
  </outline>
</glyph>
<glyph name="parenright" format="2">
  <advance width="1200"/>
  <unicode hex="0029"/>
  <outline>
    <contour>
      <point x="428" y="1632" type="line"/>
      <point x="924" y="1116" type="line"/>
      <point x="924" y="180" type="line"/>
      <point x="428" y="-336" type="line"/>
      <point x="320" y="-234" type="line"/>
      <point x="764" y="222" type="line"/>
      <point x="764" y="1074" type="line"/>
      <point x="320" y="1530" type="line"/>
    </contour>
  </outline>
</glyph>
<glyph name="comma" format="2">
  <advance width="1200"/>
  <unicode hex="002C"/>
  <outline>
    <contour>
      <point x="460" y="264" type="line"/>
      <point x="740" y="264" type="line"/>
      <point x="740" y="-257" type="line"/>
      <point x="567" y="-432" type="line"/>
      <point x="485" y="-307" type="line"/>
      <point x="580" y="-207" type="line" name=".hr01"/>
      <point x="580" y="0" type="line"/>
      <point x="460" y="0" type="line" name=".hr02"/>
    </contour>
  </outline>
</glyph>
<glyph name="hyphen" format="2">
  <advance width="1200"/>
  <unicode hex="002D"/>
  <outline>
    <contour>
      <point x="940" y="600" type="line"/>
      <point x="940" y="744" type="line"/>
      <point x="260" y="744" type="line"/>
      <point x="260" y="600" type="line"/>
    </contour>
  </outline>
</glyph>
<glyph name="period" format="2">
  <advance width="1200"/>
  <unicode hex="002E"/>
  <outline>
    <contour>
      <point x="460" y="0" type="line"/>
      <point x="740" y="0" type="line"/>
      <point x="740" y="269" type="line"/>
      <point x="460" y="269" type="line"/>
    </contour>
  </outline>
</glyph>
<glyph name="slash" format="2">
  <advance width="1200"/>
  <unicode hex="002F"/>
  <outline>
    <contour>
      <point x="961" y="1583" type="line"/>
      <point x="111" y="-178" type="line"/>
      <point x="239" y="-239" type="line"/>
      <point x="1089" y="1522" type="line"/>
    </contour>
  </outline>
</glyph>
<glyph name="one" format="2">
  <advance width="1200"/>
  <unicode hex="0031"/>
  <outline>
    <contour>
      <point x="520" y="1392" type="line"/>
      <point x="682" y="1392" type="line"/>
      <point x="682" y="144" type="line"/>
      <point x="1040" y="144" type="line"/>
      <point x="1040" y="0" type="line"/>
      <point x="160" y="0" type="line"/>
      <point x="160" y="144" type="line"/>
      <point x="520" y="144" type="line"/>
      <point x="520" y="1184" type="line"/>
      <point x="270" y="925" type="line"/>
      <point x="186" y="1049" type="line"/>
    </contour>
  </outline>
</glyph>
<glyph name="two" format="2">
  <advance width="1200"/>
  <unicode hex="0032"/>
  <outline>
    <contour>
      <point x="323" y="1392" type="line"/>
      <point x="887" y="1392" type="line"/>
      <point x="1040" y="1163" type="line"/>
      <point x="1040" y="955" type="line"/>
      <point x="320" y="208" type="line"/>
      <point x="320" y="144" type="line"/>
      <point x="1040" y="144" type="line"/>
      <point x="1040" y="0" type="line"/>
      <point x="160" y="0" type="line"/>
      <point x="160" y="250" type="line"/>
      <point x="938" y="1057" type="line"/>
      <point x="811" y="1248" type="line"/>
      <point x="382" y="1248" type="line"/>
      <point x="242" y="1108" type="line"/>
      <point x="161" y="1226" type="line"/>
    </contour>
  </outline>
</glyph>
<glyph name="four" format="2">
  <advance width="1200"/>
  <unicode hex="0034"/>
  <outline>
    <contour>
      <point x="706" y="1392" type="line" name=".hr02"/>
      <point x="961" y="1392" type="line"/>
      <point x="961" y="624" type="line" name=".hr01"/>
      <point x="1080" y="624" type="line"/>
      <point x="1080" y="480" type="line"/>
      <point x="961" y="480" type="line"/>
      <point x="961" y="0" type="line"/>
      <point x="800" y="0" type="line"/>
      <point x="800" y="480" type="line"/>
      <point x="265" y="480" type="line"/>
      <point x="82" y="747" type="line"/>
    </contour>
    <contour>
      <point x="265" y="730" type="line"/>
      <point x="337" y="624" type="line" name=".hr03"/>
      <point x="800" y="624" type="line"/>
      <point x="800" y="1282" type="line"/>
    </contour>
  </outline>
</glyph>
<glyph name="eight" format="2">
  <advance width="1200"/>
  <unicode hex="0038"/>
  <outline>
    <contour>
      <point x="458" y="1392" type="line"/>
      <point x="900" y="1392" type="line"/>
      <point x="1040" y="1180" type="line"/>
      <point x="1040" y="908" type="line"/>
      <point x="862" y="721" type="line"/>
      <point x="1040" y="458" type="line"/>
      <point x="1040" y="238" type="line"/>
      <point x="814" y="0" type="line"/>
      <point x="322" y="0" type="line"/>
      <point x="160" y="238" type="line"/>
      <point x="160" y="484" type="line"/>
      <point x="344" y="671" type="line"/>
      <point x="323" y="671" type="line"/>
      <point x="160" y="908" type="line"/>
      <point x="160" y="1082" type="line"/>
    </contour>
    <contour>
      <point x="320" y="929" type="line"/>
      <point x="396" y="815" type="line"/>
      <point x="747" y="815" type="line"/>
      <point x="880" y="946" type="line"/>
      <point x="880" y="1159" type="line"/>
      <point x="820" y="1248" type="line"/>
      <point x="519" y="1248" type="line"/>
      <point x="320" y="1044" type="line"/>
    </contour>
    <contour>
      <point x="320" y="259" type="line"/>
      <point x="396" y="144" type="line"/>
      <point x="747" y="144" type="line"/>
      <point x="880" y="276" type="line"/>
      <point x="880" y="437" type="line"/>
      <point x="722" y="671" type="line"/>
      <point x="538" y="671" type="line"/>
      <point x="320" y="441" type="line"/>
    </contour>
  </outline>
</glyph>
<glyph name="colon" format="2">
  <advance width="1200"/>
  <unicode hex="003A"/>
  <outline>
    <contour>
      <point x="460" y="70" type="line"/>
      <point x="460" y="334" type="line"/>
      <point x="740" y="334" type="line"/>
      <point x="740" y="70" type="line"/>
    </contour>
    <contour>
      <point x="460" y="742" type="line"/>
      <point x="460" y="1005" type="line"/>
      <point x="740" y="1005" type="line"/>
      <point x="740" y="742" type="line"/>
    </contour>
  </outline>
</glyph>
<glyph name="semicolon" format="2">
  <advance width="1200"/>
  <unicode hex="003B"/>
  <outline>
    <contour>
      <point x="460" y="722" type="line"/>
      <point x="460" y="986" type="line"/>
      <point x="740" y="986" type="line"/>
      <point x="740" y="722" type="line"/>
    </contour>
    <contour>
      <point x="460" y="314" type="line"/>
      <point x="740" y="314" type="line"/>
      <point x="740" y="-207" type="line"/>
      <point x="567" y="-382" type="line"/>
      <point x="485" y="-257" type="line"/>
      <point x="580" y="-157" type="line"/>
      <point x="580" y="50" type="line"/>
      <point x="460" y="50" type="line"/>
    </contour>
  </outline>
</glyph>
<glyph name="less" format="2">
  <advance width="1200"/>
  <unicode hex="003C"/>
  <outline>
    <contour>
      <point x="836" y="1270" type="line"/>
      <point x="937" y="1165" type="line"/>
      <point x="426" y="674" type="line"/>
      <point x="937" y="178" type="line"/>
      <point x="836" y="74" type="line"/>
      <point x="263" y="631" type="line"/>
      <point x="263" y="716" type="line"/>
    </contour>
  </outline>
</glyph>
<glyph name="question" format="2">
  <advance width="1200"/>
  <unicode hex="003F"/>
  <outline>
    <contour>
      <point x="319" y="1393" type="line"/>
      <point x="877" y="1393" type="line"/>
      <point x="1120" y="1027" type="line"/>
      <point x="680" y="568" type="line"/>
      <point x="680" y="385" type="line"/>
      <point x="516" y="385" type="line"/>
      <point x="516" y="605" type="line"/>
      <point x="938" y="1041" type="line"/>
      <point x="797" y="1249" type="line"/>
      <point x="380" y="1249" type="line"/>
      <point x="159" y="1022" type="line"/>
      <point x="80" y="1144" type="line"/>
    </contour>
    <contour>
      <point x="497" y="-42" type="line" name=".hr01"/>
      <point x="497" y="141" type="line"/>
      <point x="703" y="141" type="line"/>
      <point x="703" y="-42" type="line"/>
    </contour>
  </outline>
</glyph>
<glyph name="at" format="2">
  <advance width="1200"/>
  <unicode hex="0040"/>
  <outline>
    <contour>
      <point x="179" y="1350" type="line"/>
      <point x="987" y="1350" type="line"/>
      <point x="1200" y="1031" type="line"/>
      <point x="1200" y="200" type="line"/>
      <point x="1055" y="50" type="line"/>
      <point x="876" y="50" type="line"/>
      <point x="760" y="253" type="line"/>
      <point x="619" y="151" type="line"/>
      <point x="440" y="151" type="line"/>
      <point x="280" y="388" type="line"/>
      <point x="280" y="552" type="line"/>
      <point x="490" y="765" type="line"/>
      <point x="760" y="765" type="line"/>
      <point x="760" y="915" type="line"/>
      <point x="360" y="915" type="line"/>
      <point x="360" y="1059" type="line"/>
      <point x="798" y="1059" type="line"/>
      <point x="920" y="880" type="line"/>
      <point x="920" y="242" type="line"/>
      <point x="968" y="170" type="line"/>
      <point x="1040" y="242" type="line"/>
      <point x="1040" y="1012" type="line"/>
      <point x="910" y="1206" type="line"/>
      <point x="242" y="1206" type="line"/>
      <point x="160" y="1124" type="line"/>
      <point x="160" y="280" type="line"/>
      <point x="360" y="0" type="line"/>
      <point x="816" y="0" type="line"/>
      <point x="816" y="-144" type="line"/>
      <point x="284" y="-144" type="line"/>
      <point x="0" y="260" type="line"/>
      <point x="0" y="1166" type="line"/>
    </contour>
    <contour>
      <point x="440" y="420" type="line"/>
      <point x="518" y="305" type="line"/>
      <point x="760" y="305" type="line"/>
      <point x="760" y="621" type="line"/>
      <point x="546" y="621" type="line"/>
      <point x="440" y="510" type="line"/>
    </contour>
  </outline>
</glyph>
<glyph name="C" format="2">
  <advance width="1200"/>
  <unicode hex="0043"/>
  <anchor x="588" y="1542" name="top"/>
  <anchor x="588" y="-150" name="bottom"/>
  <outline>
    <contour>
      <point x="321" y="1392" type="line"/>
      <point x="880" y="1392" type="line"/>
      <point x="1012" y="1193" type="line"/>
      <point x="910" y="1086" type="line"/>
      <point x="804" y="1248" type="line"/>
      <point x="380" y="1248" type="line"/>
      <point x="320" y="1184" type="line"/>
      <point x="320" y="259" type="line"/>
      <point x="397" y="144" type="line"/>
      <point x="817" y="144" type="line"/>
      <point x="936" y="263" type="line"/>
      <point x="1016" y="144" type="line"/>
      <point x="880" y="0" type="line"/>
      <point x="320" y="0" type="line"/>
      <point x="160" y="238" type="line"/>
      <point x="160" y="1227" type="line"/>
    </contour>
  </outline>
</glyph>
<glyph name="D" format="2">
  <advance width="1200"/>
  <unicode hex="0044"/>
  <anchor x="600" y="1542" name="top"/>
  <anchor x="600" y="-150" name="bottom"/>
  <anchor x="60" y="696" name="left"/>
  <anchor x="1140" y="696" name="right"/>
  <anchor x="600" y="696" name="a5"/>
  <outline>
    <contour>
      <point x="160" y="1392" type="line"/>
      <point x="160" y="0" type="line"/>
      <point x="882" y="0" type="line"/>
      <point x="1040" y="166" type="line"/>
      <point x="1040" y="993" type="line"/>
      <point x="772" y="1392" type="line"/>
    </contour>
    <contour>
      <point x="320" y="1248" type="line"/>
      <point x="694" y="1248" type="line"/>
      <point x="880" y="972" type="line"/>
      <point x="880" y="208" type="line"/>
      <point x="817" y="144" type="line"/>
      <point x="320" y="144" type="line"/>
    </contour>
  </outline>
</glyph>
<glyph name="G" format="2">
  <advance width="1200"/>
  <unicode hex="0047"/>
  <anchor x="600" y="1542" name="top"/>
  <anchor x="600" y="-150" name="bottom"/>
  <outline>
    <contour>
      <point x="320" y="1392" type="line"/>
      <point x="876" y="1392" type="line"/>
      <point x="1009" y="1193" type="line"/>
      <point x="907" y="1089" type="line"/>
      <point x="801" y="1248" type="line"/>
      <point x="379" y="1248" type="line"/>
      <point x="320" y="1185" type="line"/>
      <point x="320" y="250" type="line"/>
      <point x="388" y="144" type="line"/>
      <point x="880" y="144" type="line"/>
      <point x="880" y="670" type="line"/>
      <point x="600" y="670" type="line"/>
      <point x="600" y="814" type="line"/>
      <point x="959" y="814" type="line"/>
      <point x="1040" y="691" type="line"/>
      <point x="1040" y="0" type="line"/>
      <point x="313" y="0" type="line"/>
      <point x="160" y="229" type="line"/>
      <point x="160" y="1225" type="line"/>
    </contour>
  </outline>
</glyph>
<glyph name="H" format="2">
  <advance width="1200"/>
  <unicode hex="0048"/>
  <anchor x="600" y="1542" name="top"/>
  <anchor x="600" y="-150" name="bottom"/>
  <anchor x="60" y="696" name="left"/>
  <anchor x="1140" y="696" name="right"/>
  <anchor x="600" y="696" name="middleBottom"/>
  <anchor x="600" y="1051" name="middleTop"/>
  <outline>
    <contour>
      <point x="160" y="1392" type="line"/>
      <point x="320" y="1392" type="line"/>
      <point x="320" y="721" type="line"/>
      <point x="476" y="815" type="line"/>
      <point x="719" y="815" type="line"/>
      <point x="880" y="721" type="line"/>
      <point x="880" y="1392" type="line"/>
      <point x="1040" y="1392" type="line"/>
      <point x="1040" y="0" type="line"/>
      <point x="880" y="0" type="line"/>
      <point x="880" y="560" type="line"/>
      <point x="804" y="671" type="line"/>
      <point x="378" y="671" type="line"/>
      <point x="320" y="611" type="line"/>
      <point x="320" y="0" type="line"/>
      <point x="160" y="0" type="line"/>
    </contour>
  </outline>
</glyph>
<glyph name="I" format="2">
  <advance width="1200"/>
  <unicode hex="0049"/>
  <anchor x="600" y="1542" name="top"/>
  <anchor x="600" y="-150" name="bottom"/>
  <outline>
    <contour>
      <point x="160" y="1392" type="line"/>
      <point x="1040" y="1392" type="line"/>
      <point x="1040" y="1247" type="line"/>
      <point x="680" y="1247" type="line"/>
      <point x="680" y="145" type="line"/>
      <point x="1040" y="145" type="line"/>
      <point x="1040" y="0" type="line"/>
      <point x="160" y="0" type="line"/>
      <point x="160" y="145" type="line"/>
      <point x="520" y="145" type="line"/>
      <point x="520.007" y="1247" type="line"/>
      <point x="160" y="1247" type="line"/>
    </contour>
  </outline>
</glyph>
<glyph name="L" format="2">
  <advance width="1200"/>
  <unicode hex="004C"/>
  <anchor x="600" y="1542" name="top"/>
  <anchor x="600" y="-150" name="bottom"/>
  <anchor x="60" y="696" name="left"/>
  <anchor x="768" y="940" name="right"/>
  <outline>
    <contour>
      <point x="160" y="1392" type="line"/>
      <point x="320" y="1392" type="line"/>
      <point x="320" y="262" type="line"/>
      <point x="401" y="145" type="line"/>
      <point x="880" y="145" type="line"/>
      <point x="880" y="289" type="line"/>
      <point x="1040" y="289" type="line"/>
      <point x="1040" y="0" type="line"/>
      <point x="325" y="0" type="line"/>
      <point x="160" y="246" type="line"/>
    </contour>
  </outline>
</glyph>
<glyph name="N" format="2">
  <advance width="1200"/>
  <unicode hex="004E"/>
  <anchor x="600" y="1542" name="top"/>
  <anchor x="600" y="-150" name="bottom"/>
  <outline>
    <contour>
      <point x="880" y="1392" type="line"/>
      <point x="1040" y="1392" type="line"/>
      <point x="1040" y="0" type="line"/>
      <point x="880" y="0" type="line"/>
      <point x="880" y="530" type="line"/>
      <point x="397" y="1248" type="line"/>
      <point x="320" y="1248" type="line"/>
      <point x="320" y="0" type="line"/>
      <point x="160" y="0" type="line"/>
      <point x="160" y="1392" type="line"/>
      <point x="473" y="1392" type="line"/>
      <point x="880" y="789" type="line"/>
    </contour>
  </outline>
</glyph>
<glyph name="O" format="2">
  <advance width="1200"/>
  <unicode hex="004F"/>
  <anchor x="600" y="1542" name="top"/>
  <anchor x="600" y="-150" name="bottom"/>
  <outline>
    <contour>
      <point x="321" y="1392" type="line"/>
      <point x="883" y="1392" type="line"/>
      <point x="1040" y="1154" type="line"/>
      <point x="1040" y="166" type="line"/>
      <point x="883" y="0" type="line"/>
      <point x="322" y="0" type="line"/>
      <point x="160" y="238" type="line"/>
      <point x="160" y="1226" type="line"/>
    </contour>
    <contour>
      <point x="320" y="259" type="line"/>
      <point x="397" y="144" type="line"/>
      <point x="821" y="144" type="line"/>
      <point x="880" y="208" type="line"/>
      <point x="880" y="1133" type="line"/>
      <point x="804" y="1248" type="line"/>
      <point x="380" y="1248" type="line"/>
      <point x="320" y="1184" type="line"/>
    </contour>
  </outline>
</glyph>
<glyph name="P" format="2">
  <advance width="1200"/>
  <unicode hex="0050"/>
  <anchor x="600" y="1542" name="top"/>
  <anchor x="600" y="-150" name="bottom"/>
  <outline>
    <contour>
      <point x="160" y="1392" type="line"/>
      <point x="882" y="1392" type="line"/>
      <point x="1040" y="1153" type="line"/>
      <point x="1040" y="832" type="line"/>
      <point x="882" y="671" type="line"/>
      <point x="320" y="671" type="line"/>
      <point x="320" y="0" type="line"/>
      <point x="160" y="0" type="line"/>
    </contour>
    <contour>
      <point x="320" y="1248" type="line"/>
      <point x="320" y="717" type="line"/>
      <point x="482" y="811" type="line"/>
      <point x="820" y="811" type="line"/>
      <point x="880" y="874" type="line"/>
      <point x="880" y="1132" type="line"/>
      <point x="804" y="1248" type="line"/>
    </contour>
  </outline>
</glyph>
<glyph name="S" format="2">
  <advance width="1200"/>
  <unicode hex="0053"/>
  <anchor x="600" y="1543" name="top"/>
  <anchor x="600" y="-150" name="bottom"/>
  <outline>
    <contour>
      <point x="320" y="1393" type="line"/>
      <point x="880" y="1393" type="line"/>
      <point x="986" y="1230" type="line"/>
      <point x="884" y="1130" type="line"/>
      <point x="803" y="1249" type="line"/>
      <point x="379" y="1249" type="line"/>
      <point x="320" y="1186" type="line"/>
      <point x="320" y="929" type="line"/>
      <point x="398" y="814" type="line"/>
      <point x="899" y="814" type="line"/>
      <point x="1040" y="602" type="line"/>
      <point x="1040" y="145" type="line"/>
      <point x="900" y="0" type="line"/>
      <point x="247" y="0" type="line"/>
      <point x="160" y="123" type="line"/>
      <point x="260" y="228" type="line"/>
      <point x="322" y="144" type="line"/>
      <point x="832" y="144" type="line"/>
      <point x="880" y="185" type="line"/>
      <point x="880" y="586" type="line"/>
      <point x="820" y="670" type="line"/>
      <point x="320" y="670" type="line"/>
      <point x="160" y="908" type="line"/>
      <point x="160" y="1227" type="line"/>
    </contour>
  </outline>
</glyph>
<glyph name="T" format="2">
  <advance width="1200"/>
  <unicode hex="0054"/>
  <anchor x="600" y="1542" name="top"/>
  <anchor x="600" y="-150" name="bottom"/>
  <anchor x="600" y="596" name="middleTop"/>
  <outline>
    <contour>
      <point x="80" y="1392" type="line"/>
      <point x="80" y="1248" type="line"/>
      <point x="444" y="1248" type="line"/>
      <point x="520" y="1133" type="line"/>
      <point x="520" y="0" type="line"/>
      <point x="680" y="0" type="line"/>
      <point x="680" y="1154" type="line"/>
      <point x="526" y="1248" type="line"/>
      <point x="1120" y="1248" type="line"/>
      <point x="1120" y="1392" type="line"/>
    </contour>
  </outline>
</glyph>
<glyph name="U" format="2">
  <advance width="1200"/>
  <unicode hex="0055"/>
  <anchor x="600" y="1542" name="top"/>
  <anchor x="600" y="-150" name="bottom"/>
  <outline>
    <contour>
      <point x="880" y="1392" type="line"/>
      <point x="1040" y="1392" type="line"/>
      <point x="1040" y="0" type="line"/>
      <point x="880" y="0" type="line"/>
      <point x="880" y="98" type="line"/>
      <point x="720" y="0" type="line"/>
      <point x="321" y="0" type="line"/>
      <point x="160" y="238" type="line"/>
      <point x="160" y="1392" type="line"/>
      <point x="320" y="1392" type="line"/>
      <point x="320" y="259" type="line"/>
      <point x="397" y="144" type="line"/>
      <point x="817" y="144" type="line"/>
      <point x="880" y="208" type="line"/>
    </contour>
  </outline>
</glyph>
<glyph name="V" format="2">
  <advance width="1200"/>
  <unicode hex="0056"/>
  <anchor x="600" y="1543" name="top"/>
  <anchor x="544" y="-150" name="bottom"/>
  <outline>
    <contour>
      <point x="880" y="1393" type="line"/>
      <point x="1040" y="1393" type="line"/>
      <point x="1040" y="450" type="line"/>
      <point x="607" y="0" type="line"/>
      <point x="468" y="0" type="line"/>
      <point x="160" y="457" type="line"/>
      <point x="160" y="1393" type="line"/>
      <point x="320" y="1393" type="line"/>
      <point x="320" y="479" type="line"/>
      <point x="545" y="142" type="line"/>
      <point x="880" y="490" type="line"/>
    </contour>
  </outline>
</glyph>
<glyph name="Y" format="2">
  <advance width="1200"/>
  <unicode hex="0059"/>
  <anchor x="600" y="1542" name="top"/>
  <anchor x="600" y="-150" name="bottom"/>
  <outline>
    <contour>
      <point x="880" y="1392" type="line"/>
      <point x="880" y="1108" type="line"/>
      <point x="600" y="815" type="line"/>
      <point x="596" y="815" type="line"/>
      <point x="320" y="1226" type="line"/>
      <point x="320" y="1392" type="line"/>
      <point x="160" y="1392" type="line"/>
      <point x="160" y="1210" type="line"/>
      <point x="520" y="675" type="line"/>
      <point x="520" y="0" type="line"/>
      <point x="680" y="0" type="line"/>
      <point x="680" y="692" type="line"/>
      <point x="1040" y="1065" type="line"/>
      <point x="1040" y="1392" type="line"/>
    </contour>
  </outline>
</glyph>
<glyph name="Z" format="2">
  <advance width="1200"/>
  <unicode hex="005A"/>
  <anchor x="600" y="1542" name="top"/>
  <anchor x="600" y="-150" name="bottom"/>
  <outline>
    <contour>
      <point x="160" y="1392" type="line"/>
      <point x="1040" y="1392" type="line"/>
      <point x="1040" y="1019" type="line"/>
      <point x="845" y="815" type="line"/>
      <point x="880" y="815" type="line"/>
      <point x="880" y="671" type="line"/>
      <point x="545" y="671" type="line"/>
      <point x="643" y="611" type="line"/>
      <point x="320" y="276" type="line"/>
      <point x="320" y="144" type="line"/>
      <point x="1040" y="144" type="line"/>
      <point x="1040" y="0" type="line"/>
      <point x="160" y="0" type="line"/>
      <point x="160" y="314" type="line"/>
      <point x="504" y="671" type="line"/>
      <point x="460" y="671" type="line"/>
      <point x="460" y="815" type="line"/>
      <point x="808" y="815" type="line"/>
      <point x="706" y="878" type="line"/>
      <point x="880" y="1061" type="line"/>
      <point x="880" y="1248" type="line"/>
      <point x="160" y="1248" type="line"/>
    </contour>
  </outline>
</glyph>
<glyph name="bracketright" format="2">
  <advance width="1200"/>
  <unicode hex="005D"/>
  <outline>
    <contour>
      <point x="320" y="1630" type="line"/>
      <point x="880" y="1630" type="line"/>
      <point x="880" y="-290" type="line"/>
      <point x="320" y="-290" type="line"/>
      <point x="320" y="-140" type="line"/>
      <point x="720" y="-140" type="line"/>
      <point x="720" y="1480" type="line"/>
      <point x="320" y="1480" type="line"/>
    </contour>
  </outline>
</glyph>
<glyph name="underscore" format="2">
  <advance width="1200"/>
  <unicode hex="005F"/>
  <outline>
    <contour>
      <point x="1099" y="-384" type="line"/>
      <point x="100" y="-384" type="line"/>
      <point x="100" y="-240" type="line"/>
      <point x="1099" y="-240" type="line"/>
    </contour>
  </outline>
</glyph>
<glyph name="grave" format="2">
  <advance width="1200"/>
  <unicode hex="0060"/>
  <anchor x="604" y="1544" name="_bottom"/>
  <anchor x="604" y="1244" name="_top"/>
  <outline>
    <contour>
      <point x="766" y="1244" type="line"/>
      <point x="382" y="1429" type="line"/>
      <point x="462" y="1545" type="line"/>
      <point x="811" y="1317" type="line"/>
    </contour>
  </outline>
</glyph>
<glyph name="a" format="2">
  <advance width="1200"/>
  <unicode hex="0061"/>
  <anchor x="640" y="1206" name="top"/>
  <anchor x="600" y="-150" name="bottom"/>
  <outline>
    <contour>
      <point x="280" y="1056" type="line"/>
      <point x="880" y="1056" type="line"/>
      <point x="1000" y="879" type="line"/>
      <point x="1000" y="0" type="line"/>
      <point x="840" y="0" type="line"/>
      <point x="840" y="97" type="line"/>
      <point x="680" y="0" type="line"/>
      <point x="280" y="0" type="line"/>
      <point x="120" y="238" type="line"/>
      <point x="120" y="316" type="line"/>
      <point x="418" y="625" type="line"/>
      <point x="840" y="625" type="line"/>
      <point x="840" y="914" type="line"/>
      <point x="280" y="914" type="line"/>
    </contour>
    <contour>
      <point x="280" y="258" type="line"/>
      <point x="354" y="145" type="line"/>
      <point x="840" y="145" type="line"/>
      <point x="840" y="480" type="line"/>
      <point x="480" y="480" type="line"/>
      <point x="280" y="274" type="line"/>
    </contour>
  </outline>
</glyph>
<glyph name="b" format="2">
  <advance width="1200"/>
  <unicode hex="0062"/>
  <anchor x="600" y="1638" name="top"/>
  <anchor x="600" y="-150" name="bottom"/>
  <outline>
    <contour>
      <point x="160" y="1488" type="line"/>
      <point x="320" y="1488" type="line"/>
      <point x="320" y="961" type="line"/>
      <point x="478" y="1057" type="line"/>
      <point x="878" y="1057" type="line"/>
      <point x="1040" y="816" type="line"/>
      <point x="1040" y="168" type="line"/>
      <point x="878" y="0" type="line"/>
      <point x="483" y="0" type="line"/>
      <point x="320" y="95" type="line"/>
      <point x="320" y="0" type="line"/>
      <point x="160" y="0" type="line"/>
    </contour>
    <contour>
      <point x="320" y="848" type="line"/>
      <point x="320" y="145" type="line"/>
      <point x="820" y="145" type="line"/>
      <point x="880" y="208" type="line"/>
      <point x="880" y="797" type="line"/>
      <point x="802" y="912" type="line"/>
      <point x="383" y="912" type="line"/>
    </contour>
  </outline>
</glyph>
<glyph name="c" format="2">
  <advance width="1200"/>
  <unicode hex="0063"/>
  <anchor x="591" y="1206" name="top"/>
  <anchor x="591" y="-150" name="bottom"/>
  <outline>
    <contour>
      <point x="320" y="1056" type="line"/>
      <point x="879" y="1056" type="line"/>
      <point x="1022" y="845" type="line"/>
      <point x="920" y="739" type="line"/>
      <point x="803" y="913" type="line"/>
      <point x="381" y="913" type="line"/>
      <point x="320" y="850" type="line"/>
      <point x="320" y="258" type="line"/>
      <point x="397" y="143" type="line"/>
      <point x="819" y="143" type="line"/>
      <point x="936" y="265" type="line"/>
      <point x="1018" y="143" type="line"/>
      <point x="880" y="0" type="line"/>
      <point x="321" y="0" type="line"/>
      <point x="160" y="239" type="line"/>
      <point x="160" y="891" type="line"/>
    </contour>
  </outline>
</glyph>
<glyph name="d" format="2">
  <advance width="1200"/>
  <unicode hex="0064"/>
  <anchor x="600" y="1638" name="top"/>
  <anchor x="600" y="-150" name="bottom"/>
  <anchor x="60" y="744" name="left"/>
  <anchor x="1140" y="744" name="right"/>
  <anchor x="800" y="1200" name="middleTop"/>
  <outline>
    <contour>
      <point x="880" y="1488" type="line"/>
      <point x="880" y="962" type="line"/>
      <point x="721" y="1057" type="line"/>
      <point x="320" y="1057" type="line"/>
      <point x="160" y="889" type="line"/>
      <point x="160" y="240" type="line"/>
      <point x="324" y="0" type="line"/>
      <point x="721" y="0" type="line"/>
      <point x="880" y="95" type="line"/>
      <point x="880" y="0" type="line"/>
      <point x="1040" y="0" type="line"/>
      <point x="1040" y="1488" type="line"/>
    </contour>
    <contour>
      <point x="320" y="259" type="line"/>
      <point x="320" y="848" type="line"/>
      <point x="383" y="912" type="line"/>
      <point x="803" y="912" type="line"/>
      <point x="880" y="798" type="line"/>
      <point x="880" y="204" type="line"/>
      <point x="821" y="145" type="line"/>
      <point x="397" y="145" type="line"/>
    </contour>
  </outline>
</glyph>
<glyph name="e" format="2">
  <advance width="1200"/>
  <unicode hex="0065"/>
  <anchor x="600" y="1206" name="top"/>
  <anchor x="600" y="-150" name="bottom"/>
  <outline>
    <contour>
      <point x="320" y="1056" type="line"/>
      <point x="880" y="1056" type="line"/>
      <point x="1040" y="818.326" type="line"/>
      <point x="713" y="481" type="line"/>
      <point x="320" y="481" type="line"/>
      <point x="320" y="258" type="line"/>
      <point x="397" y="144" type="line"/>
      <point x="819" y="144" type="line"/>
      <point x="930" y="252" type="line"/>
      <point x="1018" y="144" type="line"/>
      <point x="880" y="0" type="line"/>
      <point x="321" y="0" type="line"/>
      <point x="160" y="239" type="line"/>
      <point x="160" y="890.076" type="line"/>
    </contour>
    <contour>
      <point x="320" y="849.219" type="line"/>
      <point x="320" y="625" type="line"/>
      <point x="653" y="625" type="line"/>
      <point x="855" y="835.267" type="line"/>
      <point x="802" y="912" type="line"/>
      <point x="382" y="912" type="line"/>
    </contour>
  </outline>
</glyph>
<glyph name="f" format="2">
  <advance width="1200"/>
  <unicode hex="0066"/>
  <anchor x="600" y="1542" name="top"/>
  <anchor x="400" y="-150" name="bottom"/>
  <outline>
    <contour>
      <point x="502" y="1392" type="line"/>
      <point x="946" y="1392" type="line"/>
      <point x="1040" y="1255" type="line"/>
      <point x="939" y="1151" type="line"/>
      <point x="873" y="1248" type="line"/>
      <point x="567" y="1248" type="line"/>
      <point x="480" y="1159" type="line"/>
      <point x="480" y="816" type="line"/>
      <point x="873" y="816" type="line"/>
      <point x="873" y="672" type="line"/>
      <point x="480" y="672" type="line"/>
      <point x="480" y="0" type="line"/>
      <point x="320" y="0" type="line"/>
      <point x="320" y="672" type="line"/>
      <point x="160" y="672" type="line"/>
      <point x="160" y="816" type="line"/>
      <point x="320" y="816" type="line"/>
      <point x="320" y="1205" type="line"/>
    </contour>
  </outline>
</glyph>
<glyph name="g" format="2">
  <advance width="1200"/>
  <unicode hex="0067"/>
  <anchor x="600" y="1208" name="top"/>
  <anchor x="600" y="-534" name="bottom"/>
  <outline>
    <contour>
      <point x="450" y="149.556" type="line"/>
      <point x="336" y="40.0861" type="line"/>
      <point x="336" y="-119" type="line"/>
      <point x="417" y="-238" type="line"/>
      <point x="712" y="-238" type="line"/>
      <point x="880" y="-70.2643" type="line"/>
      <point x="880" y="89.5564" type="line"/>
      <point x="842" y="149.556" type="line"/>
    </contour>
    <contour>
      <point x="336" y="820" type="line"/>
      <point x="336" y="585.556" type="line"/>
      <point x="718" y="585.556" type="line"/>
      <point x="880" y="685.556" type="line"/>
      <point x="880" y="804" type="line"/>
      <point x="804" y="912" type="line"/>
      <point x="423" y="912" type="line"/>
    </contour>
    <contour>
      <point x="723" y="439.556" type="line"/>
      <point x="417" y="439.556" type="line"/>
      <point x="342" y="364.556" type="line"/>
      <point x="385" y="295.556" type="line"/>
      <point x="920" y="295.556" type="line"/>
      <point x="1040" y="106.556" type="line"/>
      <point x="1040" y="-103" type="line"/>
      <point x="774" y="-384" type="line"/>
      <point x="342" y="-384" type="line"/>
      <point x="176" y="-135" type="line"/>
      <point x="176" y="73.5564" type="line"/>
      <point x="290" y="187.556" type="line"/>
      <point x="160" y="380.556" type="line"/>
      <point x="263" y="483.556" type="line"/>
      <point x="176" y="537.556" type="line"/>
      <point x="176" y="863" type="line"/>
      <point x="363" y="1058" type="line"/>
      <point x="723" y="1058" type="line"/>
      <point x="880" y="961" type="line"/>
      <point x="880" y="1058" type="line"/>
      <point x="1040" y="1058" type="line"/>
      <point x="1040" y="634.556" type="line"/>
    </contour>
  </outline>
</glyph>
<glyph name="h" format="2">
  <advance width="1200"/>
  <unicode hex="0068"/>
  <anchor x="600" y="1639" name="top"/>
  <anchor x="600" y="-150" name="bottom"/>
  <anchor x="60" y="745" name="left"/>
  <anchor x="1140" y="745" name="right"/>
  <anchor x="400" y="1210" name="middleTop"/>
  <anchor x="600" y="665" name="middleBottom"/>
  <outline>
    <contour>
      <point x="160" y="1489" type="line"/>
      <point x="320" y="1489" type="line"/>
      <point x="320" y="961" type="line"/>
      <point x="479" y="1056" type="line"/>
      <point x="876" y="1056" type="line"/>
      <point x="1040" y="822" type="line"/>
      <point x="1040" y="0" type="line"/>
      <point x="880" y="0" type="line"/>
      <point x="880" y="802" type="line"/>
      <point x="805" y="912" type="line"/>
      <point x="384" y="912" type="line"/>
      <point x="320" y="852" type="line"/>
      <point x="320" y="0" type="line"/>
      <point x="160" y="0" type="line"/>
    </contour>
  </outline>
</glyph>
<glyph name="l" format="2">
  <advance width="1200"/>
  <unicode hex="006C"/>
  <anchor x="490" y="1638" name="top"/>
  <anchor x="490" y="-150" name="bottom"/>
  <anchor x="120" y="744" name="left"/>
  <anchor x="980" y="744" name="right"/>
  <outline>
    <contour>
      <point x="159.996" y="1488" type="line"/>
      <point x="159.996" y="1345" type="line"/>
      <point x="459" y="1345" type="line"/>
      <point x="459" y="236" type="line"/>
      <point x="619" y="0" type="line"/>
      <point x="1039.61" y="0" type="line"/>
      <point x="1040" y="143" type="line"/>
      <point x="694" y="143" type="line"/>
      <point x="619" y="256" type="line"/>
      <point x="619" y="1393" type="line"/>
      <point x="459" y="1488" type="line"/>
    </contour>
  </outline>
</glyph>
<glyph name="m" format="2">
  <advance width="1200"/>
  <unicode hex="006D"/>
  <anchor x="600" y="1206" name="top"/>
  <anchor x="600" y="-150" name="bottom"/>
  <outline>
    <contour>
      <point x="120" y="1056" type="line"/>
      <point x="280" y="1056" type="line"/>
      <point x="280" y="960" type="line"/>
      <point x="439" y="1056" type="line"/>
      <point x="522" y="1056" type="line"/>
      <point x="614" y="919" type="line"/>
      <point x="841" y="1056" type="line"/>
      <point x="920" y="1056" type="line"/>
      <point x="1080" y="819" type="line"/>
      <point x="1080" y="0" type="line"/>
      <point x="920" y="0" type="line"/>
      <point x="920" y="799" type="line"/>
      <point x="844" y="912" type="line"/>
      <point x="742" y="912" type="line"/>
      <point x="682" y="848" type="line"/>
      <point x="682" y="550" type="line"/>
      <point x="522" y="550" type="line"/>
      <point x="522" y="799" type="line"/>
      <point x="446" y="912" type="line"/>
      <point x="340" y="912" type="line"/>
      <point x="280" y="848" type="line"/>
      <point x="280" y="0" type="line"/>
      <point x="120" y="0" type="line"/>
    </contour>
  </outline>
</glyph>
<glyph name="n" format="2">
  <advance width="1200"/>
  <unicode hex="006E"/>
  <anchor x="600" y="1206" name="top"/>
  <anchor x="600" y="-150" name="bottom"/>
  <outline>
    <contour>
      <point x="160" y="1056" type="line"/>
      <point x="320" y="1056" type="line"/>
      <point x="320" y="960" type="line"/>
      <point x="480" y="1056" type="line"/>
      <point x="880" y="1056" type="line"/>
      <point x="1040" y="820" type="line"/>
      <point x="1040" y="0" type="line"/>
      <point x="880" y="0" type="line"/>
      <point x="880" y="800" type="line"/>
      <point x="804" y="912" type="line"/>
      <point x="380" y="912" type="line"/>
      <point x="320" y="848" type="line"/>
      <point x="320" y="0" type="line"/>
      <point x="160" y="0" type="line"/>
    </contour>
  </outline>
</glyph>
<glyph name="o" format="2">
  <advance width="1200"/>
  <unicode hex="006F"/>
  <anchor x="600" y="1206" name="top"/>
  <anchor x="600" y="-150" name="bottom"/>
  <outline>
    <contour>
      <point x="319" y="1056" type="line"/>
      <point x="881" y="1056" type="line"/>
      <point x="1040" y="817" type="line"/>
      <point x="1040" y="165" type="line"/>
      <point x="881" y="0" type="line"/>
      <point x="321" y="0" type="line"/>
      <point x="160" y="239" type="line"/>
      <point x="160" y="891" type="line"/>
    </contour>
    <contour>
      <point x="320" y="258" type="line"/>
      <point x="398" y="144" type="line"/>
      <point x="821" y="144" type="line"/>
      <point x="880" y="206" type="line"/>
      <point x="880" y="799" type="line"/>
      <point x="804" y="912" type="line"/>
      <point x="381" y="912" type="line"/>
      <point x="320" y="848" type="line"/>
    </contour>
  </outline>
</glyph>
<glyph name="p" format="2">
  <advance width="1200"/>
  <unicode hex="0070"/>
  <anchor x="600" y="1206" name="top"/>
  <anchor x="240" y="-581" name="bottom"/>
  <outline>
    <contour>
      <point x="478" y="1056" type="line"/>
      <point x="883" y="1056" type="line"/>
      <point x="1040" y="818" type="line"/>
      <point x="1040" y="166" type="line"/>
      <point x="881" y="0" type="line"/>
      <point x="480" y="0" type="line"/>
      <point x="320" y="96" type="line"/>
      <point x="320" y="-431" type="line"/>
      <point x="160" y="-431" type="line"/>
      <point x="160" y="1056" type="line"/>
      <point x="320" y="1056" type="line"/>
      <point x="320" y="960" type="line"/>
    </contour>
    <contour>
      <point x="320" y="259" type="line"/>
      <point x="398" y="144" type="line"/>
      <point x="821" y="144" type="line"/>
      <point x="880" y="206" type="line"/>
      <point x="880" y="797" type="line"/>
      <point x="805" y="912" type="line"/>
      <point x="381" y="912" type="line"/>
      <point x="320" y="849" type="line"/>
    </contour>
  </outline>
</glyph>
<glyph name="q" format="2">
  <advance width="1200"/>
  <unicode hex="0071"/>
  <anchor x="560" y="1206" name="top"/>
  <anchor x="560" y="-581" name="bottom"/>
  <outline>
    <contour>
      <point x="320" y="1056" type="line"/>
      <point x="638" y="1056" type="line"/>
      <point x="800" y="960" type="line"/>
      <point x="800" y="1055" type="line"/>
      <point x="960" y="1055" type="line"/>
      <point x="960" y="-431" type="line"/>
      <point x="800" y="-431" type="line"/>
      <point x="800" y="95" type="line"/>
      <point x="640" y="0" type="line"/>
      <point x="320" y="0" type="line"/>
      <point x="160" y="239" type="line"/>
      <point x="160" y="891" type="line"/>
    </contour>
    <contour>
      <point x="320" y="260" type="line"/>
      <point x="398" y="144" type="line"/>
      <point x="738" y="144" type="line"/>
      <point x="800" y="206" type="line"/>
      <point x="800" y="800" type="line"/>
      <point x="721" y="912" type="line"/>
      <point x="382" y="912" type="line"/>
      <point x="320" y="850" type="line"/>
    </contour>
  </outline>
</glyph>
<glyph name="s" format="2">
  <advance width="1200"/>
  <unicode hex="0073"/>
  <anchor x="585" y="1196" name="top"/>
  <anchor x="585" y="-150" name="bottom"/>
  <outline>
    <contour>
      <point x="352" y="1056" type="line"/>
      <point x="840" y="1056" type="line"/>
      <point x="944" y="902" type="line"/>
      <point x="846" y="800" type="line"/>
      <point x="767" y="916" type="line"/>
      <point x="420" y="916" type="line"/>
      <point x="360" y="863" type="line"/>
      <point x="360" y="732" type="line"/>
      <point x="434" y="624" type="line"/>
      <point x="843" y="624" type="line"/>
      <point x="980" y="421" type="line"/>
      <point x="980" y="150" type="line"/>
      <point x="844" y="0" type="line"/>
      <point x="279" y="0" type="line"/>
      <point x="200" y="123" type="line"/>
      <point x="298" y="224" type="line"/>
      <point x="352" y="144" type="line"/>
      <point x="778" y="144" type="line"/>
      <point x="820" y="190" type="line"/>
      <point x="820" y="398" type="line"/>
      <point x="762" y="480" type="line"/>
      <point x="352" y="480" type="line"/>
      <point x="200" y="708" type="line"/>
      <point x="200" y="908" type="line"/>
    </contour>
  </outline>
</glyph>
<glyph name="t" format="2">
  <advance width="1200"/>
  <unicode hex="0074"/>
  <anchor x="560" y="1638" name="top"/>
  <anchor x="656" y="-130" name="bottom"/>
  <anchor x="539" y="640" name="middleTop"/>
  <outline>
    <contour>
      <point x="379" y="1488" type="line"/>
      <point x="379" y="1057" type="line"/>
      <point x="220" y="1057" type="line"/>
      <point x="220" y="912" type="line"/>
      <point x="379" y="912" type="line"/>
      <point x="379" y="235" type="line"/>
      <point x="539" y="0" type="line"/>
      <point x="884" y="0" type="line"/>
      <point x="1019" y="145" type="line"/>
      <point x="938" y="264" type="line"/>
      <point x="819" y="145" type="line"/>
      <point x="615" y="145" type="line"/>
      <point x="539" y="259" type="line"/>
      <point x="539" y="912" type="line"/>
      <point x="861" y="912" type="line"/>
      <point x="861" y="1057" type="line"/>
      <point x="539" y="1057" type="line"/>
      <point x="539" y="1488" type="line"/>
    </contour>
  </outline>
</glyph>
<glyph name="u" format="2">
  <advance width="1200"/>
  <unicode hex="0075"/>
  <anchor x="600" y="1196" name="top"/>
  <anchor x="600" y="-150" name="bottom"/>
  <outline>
    <contour>
      <point x="880" y="1056" type="line"/>
      <point x="1040" y="1056" type="line"/>
      <point x="1040" y="0" type="line"/>
      <point x="883" y="0" type="line"/>
      <point x="883" y="97" type="line"/>
      <point x="721" y="0" type="line"/>
      <point x="322" y="0" type="line"/>
      <point x="160" y="238" type="line"/>
      <point x="160" y="1056" type="line"/>
      <point x="320" y="1056" type="line"/>
      <point x="320" y="258" type="line"/>
      <point x="397" y="145" type="line"/>
      <point x="822" y="145" type="line"/>
      <point x="880" y="206" type="line"/>
    </contour>
  </outline>
</glyph>
<glyph name="w" format="2">
  <advance width="1200"/>
  <unicode hex="0077"/>
  <anchor x="600" y="1196" name="top"/>
  <anchor x="600" y="-150" name="bottom"/>
  <outline>
    <contour>
      <point x="1000" y="1056" type="line"/>
      <point x="1160" y="1056" type="line"/>
      <point x="1160" y="287" type="line"/>
      <point x="883" y="0" type="line"/>
      <point x="738" y="0" type="line"/>
      <point x="619" y="180" type="line"/>
      <point x="442" y="0" type="line"/>
      <point x="301" y="0" type="line"/>
      <point x="40" y="386" type="line"/>
      <point x="40" y="1056" type="line"/>
      <point x="200" y="1056" type="line"/>
      <point x="200" y="406" type="line"/>
      <point x="375" y="145" type="line"/>
      <point x="384" y="145" type="line"/>
      <point x="520" y="287" type="line"/>
      <point x="520" y="1056" type="line"/>
      <point x="680" y="1056" type="line"/>
      <point x="680" y="344" type="line"/>
      <point x="816" y="145" type="line"/>
      <point x="822" y="145" type="line"/>
      <point x="1000" y="328" type="line"/>
    </contour>
  </outline>
</glyph>
<glyph name="x" format="2">
  <advance width="1200"/>
  <unicode hex="0078"/>
  <anchor x="600" y="1196" name="top"/>
  <anchor x="600" y="-150" name="bottom"/>
  <outline>
    <contour>
      <point x="880" y="1056" type="line"/>
      <point x="1040" y="1056" type="line"/>
      <point x="1040" y="824" type="line"/>
      <point x="842" y="621" type="line"/>
      <point x="1040" y="328" type="line"/>
      <point x="1040" y="0" type="line"/>
      <point x="880" y="0" type="line"/>
      <point x="880" y="309" type="line"/>
      <point x="764" y="480" type="line"/>
      <point x="552" y="480" type="line"/>
      <point x="320" y="238" type="line"/>
      <point x="320" y="0" type="line"/>
      <point x="160" y="0" type="line"/>
      <point x="160" y="277" type="line"/>
      <point x="356" y="480" type="line"/>
      <point x="356" y="483" type="line"/>
      <point x="160" y="776" type="line"/>
      <point x="160" y="1056" type="line"/>
      <point x="320" y="1056" type="line"/>
      <point x="320" y="795" type="line"/>
      <point x="436" y="625" type="line"/>
      <point x="645" y="625" type="line"/>
      <point x="880" y="866" type="line"/>
    </contour>
  </outline>
</glyph>
<glyph name="z" format="2">
  <advance width="1200"/>
  <unicode hex="007A"/>
  <anchor x="600" y="1196" name="top"/>
  <anchor x="600" y="-150" name="bottom"/>
  <outline>
    <contour>
      <point x="160" y="1056" type="line"/>
      <point x="1040" y="1056" type="line"/>
      <point x="1040" y="846" type="line"/>
      <point x="360" y="144" type="line"/>
      <point x="1040" y="144" type="line"/>
      <point x="1040" y="0" type="line"/>
      <point x="160" y="0" type="line"/>
      <point x="160" y="144" type="line"/>
      <point x="880" y="889" type="line"/>
      <point x="880" y="912" type="line"/>
      <point x="160" y="912" type="line"/>
    </contour>
  </outline>
</glyph>
<glyph name="braceleft" format="2">
  <advance width="1200"/>
  <unicode hex="007B"/>
  <outline>
    <contour>
      <point x="539" y="1633" type="line"/>
      <point x="878" y="1633" type="line"/>
      <point x="878" y="1487" type="line"/>
      <point x="603" y="1487" type="line" name=".hr01"/>
      <point x="603" y="995" type="line"/>
      <point x="287" y="673" type="line"/>
      <point x="603" y="351" type="line"/>
      <point x="603" y="-141" type="line"/>
      <point x="878" y="-141" type="line" name=".hr02"/>
      <point x="878" y="-287" type="line"/>
      <point x="539" y="-287" type="line"/>
      <point x="439" y="-182" type="line"/>
      <point x="439" y="310" type="line"/>
      <point x="88" y="673" type="line"/>
      <point x="439" y="1036" type="line"/>
      <point x="439" y="1528" type="line"/>
    </contour>
  </outline>
</glyph>
<glyph name="asciitilde" format="2">
  <advance width="1200"/>
  <unicode hex="007E"/>
  <anchor x="600" y="812" name="_bottom"/>
  <anchor x="600" y="522" name="_top"/>
  <outline>
    <contour>
      <point x="1056" y="805" type="line"/>
      <point x="1119" y="673" type="line"/>
      <point x="800" y="520" type="line"/>
      <point x="449" y="654" type="line"/>
      <point x="183" y="525" type="line"/>
      <point x="121" y="657" type="line"/>
      <point x="440" y="810" type="line"/>
      <point x="796" y="679" type="line"/>
    </contour>
  </outline>
</glyph>
<glyph name="cent" format="2">
  <advance width="1200"/>
  <unicode hex="00A2"/>
  <outline>
    <contour>
      <point x="320" y="1056" type="line"/>
      <point x="520" y="1056" type="line"/>
      <point x="520" y="1350" type="line"/>
      <point x="680" y="1350" type="line"/>
      <point x="680" y="1056" type="line"/>
      <point x="879" y="1056" type="line"/>
      <point x="1022" y="845" type="line"/>
      <point x="920" y="739" type="line"/>
      <point x="803" y="913" type="line"/>
      <point x="381" y="913" type="line"/>
      <point x="320" y="850" type="line"/>
      <point x="320" y="258" type="line"/>
      <point x="397" y="143" type="line"/>
      <point x="819" y="143" type="line"/>
      <point x="936" y="265" type="line"/>
      <point x="1018" y="143" type="line"/>
      <point x="880" y="0" type="line"/>
      <point x="680" y="0" type="line"/>
      <point x="680" y="-289" type="line"/>
      <point x="520" y="-289" type="line"/>
      <point x="520" y="0" type="line"/>
      <point x="321" y="0" type="line"/>
      <point x="160" y="239" type="line"/>
      <point x="160" y="891" type="line"/>
    </contour>
  </outline>
</glyph>
<glyph name="sterling" format="2">
  <advance width="1200"/>
  <unicode hex="00A3"/>
  <outline>
    <contour>
      <point x="401" y="1392" type="line"/>
      <point x="1011" y="1392" type="line"/>
      <point x="1011" y="1103" type="line"/>
      <point x="851" y="1103" type="line"/>
      <point x="851" y="1248" type="line"/>
      <point x="479" y="1248" type="line"/>
      <point x="401" y="1135" type="line"/>
      <point x="401" y="774" type="line"/>
      <point x="780" y="774" type="line"/>
      <point x="780" y="630" type="line"/>
      <point x="401" y="630" type="line"/>
      <point x="401" y="245" type="line"/>
      <point x="333" y="144" type="line"/>
      <point x="1008" y="144" type="line"/>
      <point x="1008" y="0" type="line"/>
      <point x="60" y="0" type="line"/>
      <point x="60" y="144" type="line"/>
      <point x="160" y="144" type="line"/>
      <point x="238" y="257" type="line"/>
      <point x="238" y="630" type="line"/>
      <point x="100" y="630" type="line"/>
      <point x="100" y="774" type="line"/>
      <point x="238" y="774" type="line"/>
      <point x="238" y="1146" type="line"/>
    </contour>
  </outline>
</glyph>
<glyph name="copyright" format="2">
  <advance width="1200"/>
  <unicode hex="00A9"/>
  <anchor x="600" y="1308" name="top"/>
  <anchor x="600" y="-110" name="bottom"/>
  <outline>
    <contour>
      <point x="402" y="983" type="line"/>
      <point x="242" y="818" type="line"/>
      <point x="242" y="464" type="line"/>
      <point x="403" y="225" type="line"/>
      <point x="816" y="225" type="line"/>
      <point x="954" y="368" type="line"/>
      <point x="872" y="490" type="line"/>
      <point x="754" y="368" type="line"/>
      <point x="480" y="368" type="line"/>
      <point x="402" y="483" type="line"/>
      <point x="402" y="777" type="line"/>
      <point x="464" y="840" type="line"/>
      <point x="739" y="840" type="line"/>
      <point x="856" y="666" type="line"/>
      <point x="958" y="772" type="line"/>
      <point x="815" y="983" type="line"/>
    </contour>
    <contour>
      <point x="363" y="1158" type="line"/>
      <point x="828" y="1158" type="line"/>
      <point x="1160" y="835" type="line"/>
      <point x="1160" y="360" type="line"/>
      <point x="828" y="40" type="line"/>
      <point x="363" y="40" type="line"/>
      <point x="40" y="360" type="line"/>
      <point x="40" y="835" type="line"/>
    </contour>
  </outline>
</glyph>
<glyph name="ordfeminine" format="2">
  <advance width="1200"/>
  <unicode hex="00AA"/>
  <outline>
    <contour>
      <point x="343" y="1483" type="line"/>
      <point x="830" y="1483" type="line"/>
      <point x="927" y="1340" type="line"/>
      <point x="927" y="626" type="line"/>
      <point x="797" y="626" type="line"/>
      <point x="797" y="705" type="line"/>
      <point x="667" y="626" type="line"/>
      <point x="343" y="626" type="line"/>
      <point x="213" y="819" type="line"/>
      <point x="213" y="882" type="line"/>
      <point x="455" y="1133" type="line"/>
      <point x="797" y="1133" type="line"/>
      <point x="797" y="1368" type="line"/>
      <point x="343" y="1368" type="line"/>
    </contour>
    <contour>
      <point x="343" y="835" type="line"/>
      <point x="403" y="744" type="line"/>
      <point x="797" y="744" type="line"/>
      <point x="797" y="1015" type="line"/>
      <point x="505" y="1015" type="line"/>
      <point x="343" y="848" type="line"/>
    </contour>
  </outline>
</glyph>
<glyph name="logicalnot" format="2">
  <advance width="1200"/>
  <unicode hex="00AC"/>
  <outline>
    <contour>
      <point x="940" y="672" type="line"/>
      <point x="940" y="264" type="line"/>
      <point x="780" y="264" type="line"/>
      <point x="780" y="528" type="line" name=".hr01"/>
      <point x="240" y="528" type="line"/>
      <point x="240" y="672" type="line"/>
    </contour>
  </outline>
</glyph>
<glyph name="degree" format="2">
  <advance width="1200"/>
  <unicode hex="00B0"/>
  <outline>
    <contour>
      <point x="510" y="1563" type="line"/>
      <point x="687" y="1563" type="line"/>
      <point x="813" y="1440" type="line"/>
      <point x="813" y="1261" type="line"/>
      <point x="687" y="1139" type="line"/>
      <point x="510" y="1139" type="line"/>
      <point x="388" y="1261" type="line"/>
      <point x="388" y="1440" type="line"/>
    </contour>
    <contour>
      <point x="554" y="1460" type="line"/>
      <point x="490" y="1397" type="line"/>
      <point x="490" y="1305" type="line"/>
      <point x="554" y="1242" type="line"/>
      <point x="645" y="1242" type="line"/>
      <point x="709" y="1304" type="line"/>
      <point x="709" y="1398" type="line"/>
      <point x="645" y="1460" type="line"/>
    </contour>
  </outline>
</glyph>
<glyph name="plusminus" format="2">
  <advance width="1200"/>
  <unicode hex="00B1"/>
  <outline>
    <contour>
      <point x="984" y="144" type="line"/>
      <point x="984" y="0" type="line"/>
      <point x="216" y="0" type="line"/>
      <point x="216" y="144" type="line"/>
    </contour>
    <contour>
      <point x="528" y="1125" type="line"/>
      <point x="672" y="1125" type="line"/>
      <point x="672" y="814" type="line"/>
      <point x="984" y="814" type="line"/>
      <point x="984" y="670" type="line"/>
      <point x="672" y="670" type="line"/>
      <point x="672" y="360" type="line"/>
      <point x="528" y="360" type="line"/>
      <point x="528" y="670" type="line"/>
      <point x="216" y="670" type="line"/>
      <point x="216" y="814" type="line"/>
      <point x="528" y="814" type="line"/>
    </contour>
  </outline>
</glyph>
<glyph name="paragraph" format="2">
  <advance width="1200"/>
  <unicode hex="00B6"/>
  <outline>
    <contour>
      <point x="289" y="1526" type="line"/>
      <point x="1094" y="1526" type="line"/>
      <point x="1094" y="0" type="line"/>
      <point x="944" y="0" type="line"/>
      <point x="944" y="1303" type="line"/>
      <point x="852" y="1303" type="line"/>
      <point x="852" y="0" type="line"/>
      <point x="612" y="0" type="line"/>
      <point x="612" y="496" type="line"/>
      <point x="503" y="431" type="line"/>
      <point x="285" y="431" type="line"/>
      <point x="106" y="698" type="line"/>
      <point x="106" y="1338" type="line"/>
    </contour>
  </outline>
</glyph>
<glyph name="periodcentered" format="2">
  <advance width="1200"/>
  <unicode hex="00B7"/>
  <anchor x="600" y="804" name="_top"/>
  <anchor x="600" y="541" name="_bottom"/>
  <anchor x="460" y="672" name="_left"/>
  <anchor x="740" y="672" name="_right"/>
  <outline>
    <contour>
      <point x="460" y="540" type="line"/>
      <point x="460" y="804" type="line"/>
      <point x="740" y="804" type="line"/>
      <point x="740" y="540" type="line"/>
    </contour>
  </outline>
</glyph>
<glyph name="cedilla" format="2">
  <advance width="1200"/>
  <unicode hex="00B8"/>
  <anchor x="600" y="-140" name="_bottom"/>
  <outline>
    <contour>
      <point x="441" y="-207" type="line"/>
      <point x="441" y="-329" type="line"/>
      <point x="600" y="-329" type="line"/>
      <point x="759" y="-197" type="line"/>
      <point x="759" y="-135" type="line"/>
      <point x="600" y="-13" type="line"/>
      <point x="600" y="20" type="line"/>
      <point x="480" y="20" type="line"/>
      <point x="480" y="-12" type="line"/>
      <point x="640" y="-137" type="line"/>
      <point x="640" y="-207" type="line"/>
    </contour>
  </outline>
</glyph>
<glyph name="ordmasculine" format="2">
  <advance width="1200"/>
  <unicode hex="00BA"/>
  <outline>
    <contour>
      <point x="353" y="1486" type="line"/>
      <point x="847" y="1486" type="line"/>
      <point x="988" y="1275" type="line"/>
      <point x="988" y="867" type="line"/>
      <point x="847" y="721" type="line"/>
      <point x="353" y="721" type="line"/>
      <point x="212" y="932" type="line"/>
      <point x="212" y="1340" type="line"/>
    </contour>
    <contour>
      <point x="341" y="942" type="line"/>
      <point x="415" y="835" type="line"/>
      <point x="804" y="835" type="line"/>
      <point x="859" y="892" type="line"/>
      <point x="859" y="1267" type="line"/>
      <point x="785" y="1372" type="line"/>
      <point x="396" y="1372" type="line"/>
      <point x="341" y="1312" type="line"/>
    </contour>
  </outline>
</glyph>
<glyph name="AE" format="2">
  <advance width="1200"/>
  <unicode hex="00C6"/>
  <anchor x="701" y="1386" name="t.uni0342"/>
  <anchor x="600" y="0" name="m.uni0345"/>
  <outline>
    <contour>
      <point x="324" y="1392" type="line"/>
      <point x="1200" y="1392" type="line"/>
      <point x="1200" y="1248" type="line"/>
      <point x="760" y="1248" type="line"/>
      <point x="760" y="815" type="line"/>
      <point x="1080" y="815" type="line"/>
      <point x="1080" y="671" type="line"/>
      <point x="760" y="671" type="line"/>
      <point x="760" y="144" type="line"/>
      <point x="1200" y="144" type="line"/>
      <point x="1200" y="0" type="line"/>
      <point x="600" y="0" type="line"/>
      <point x="600" y="671" type="line"/>
      <point x="160" y="671" type="line"/>
      <point x="160" y="0" type="line"/>
      <point x="0" y="0" type="line"/>
      <point x="0" y="1057" type="line"/>
    </contour>
    <contour>
      <point x="160" y="1019" type="line"/>
      <point x="160" y="815" type="line"/>
      <point x="600" y="815" type="line"/>
      <point x="600" y="1248" type="line"/>
      <point x="381" y="1248" type="line"/>
    </contour>
  </outline>
</glyph>
<glyph name="Thorn" format="2">
  <advance width="1200"/>
  <unicode hex="00DE"/>
  <anchor x="600" y="2017" name="top"/>
  <anchor x="600" y="229" name="bottom"/>
  <outline>
    <contour>
      <point x="160" y="1480" type="line"/>
      <point x="320" y="1480" type="line"/>
      <point x="320" y="1154" type="line"/>
      <point x="478" y="1250" type="line"/>
      <point x="878" y="1250" type="line"/>
      <point x="1040" y="1009" type="line"/>
      <point x="1040" y="361" type="line"/>
      <point x="878" y="193" type="line"/>
      <point x="483" y="193" type="line"/>
      <point x="320" y="288" type="line"/>
      <point x="320" y="-1" type="line"/>
      <point x="160" y="-1" type="line"/>
    </contour>
    <contour>
      <point x="320" y="1041" type="line"/>
      <point x="320" y="338" type="line"/>
      <point x="820" y="338" type="line"/>
      <point x="880" y="401" type="line"/>
      <point x="880" y="990" type="line"/>
      <point x="802" y="1105" type="line"/>
      <point x="383" y="1105" type="line"/>
    </contour>
  </outline>
</glyph>
<glyph name="germandbls" format="2">
  <advance width="1200"/>
  <unicode hex="00DF"/>
  <outline>
    <contour>
      <point x="479" y="1393" type="line"/>
      <point x="1041" y="1393" type="line"/>
      <point x="1041" y="1227" type="line"/>
      <point x="646" y="815" type="line"/>
      <point x="824" y="815" type="line"/>
      <point x="1040" y="493" type="line"/>
      <point x="1040" y="174" type="line"/>
      <point x="871" y="0" type="line"/>
      <point x="600" y="0" type="line"/>
      <point x="600" y="144" type="line"/>
      <point x="812" y="144" type="line"/>
      <point x="880" y="217" type="line"/>
      <point x="880" y="476" type="line"/>
      <point x="748" y="671" type="line"/>
      <point x="459" y="671" type="line"/>
      <point x="459" y="832" type="line"/>
      <point x="862" y="1249" type="line"/>
      <point x="540" y="1249" type="line"/>
      <point x="320" y="1019" type="line"/>
      <point x="320" y="0" type="line"/>
      <point x="160" y="0" type="line"/>
      <point x="160" y="1062" type="line"/>
    </contour>
  </outline>
</glyph>
<glyph name="ae" format="2">
  <advance width="1200"/>
  <unicode hex="00E6"/>
  <anchor x="604" y="1062" name="t.uni0342"/>
  <outline>
    <contour>
      <point x="160" y="1056" type="line"/>
      <point x="560" y="1056" type="line"/>
      <point x="609" y="983" type="line"/>
      <point x="680" y="1056" type="line"/>
      <point x="1040" y="1056" type="line"/>
      <point x="1200" y="819" type="line"/>
      <point x="873" y="480" type="line"/>
      <point x="680" y="480" type="line"/>
      <point x="680" y="258" type="line"/>
      <point x="757" y="144" type="line"/>
      <point x="979" y="144" type="line"/>
      <point x="1096" y="265" type="line"/>
      <point x="1178" y="144" type="line"/>
      <point x="1040" y="0" type="line"/>
      <point x="680" y="0" type="line"/>
      <point x="588" y="138" type="line"/>
      <point x="520" y="0" type="line"/>
      <point x="160" y="0" type="line"/>
      <point x="0" y="238" type="line"/>
      <point x="0" y="316" type="line"/>
      <point x="298" y="624" type="line"/>
      <point x="520" y="624" type="line"/>
      <point x="520" y="912" type="line"/>
      <point x="160" y="912" type="line"/>
    </contour>
    <contour>
      <point x="680" y="850" type="line"/>
      <point x="680" y="624" type="line"/>
      <point x="813" y="624" type="line"/>
      <point x="1015" y="836" type="line"/>
      <point x="962" y="912" type="line"/>
      <point x="742" y="912" type="line"/>
    </contour>
    <contour>
      <point x="160" y="258" type="line"/>
      <point x="234" y="144" type="line"/>
      <point x="460" y="144" type="line"/>
      <point x="520" y="239" type="line"/>
      <point x="520" y="480" type="line"/>
      <point x="360" y="480" type="line"/>
      <point x="160" y="274" type="line"/>
    </contour>
  </outline>
</glyph>
<glyph name="eth" format="2">
  <advance width="1200"/>
  <unicode hex="00F0"/>
  <outline>
    <contour>
      <point x="327" y="1505" type="line"/>
      <point x="614" y="1405" type="line"/>
      <point x="750" y="1544" type="line"/>
      <point x="850" y="1446" type="line"/>
      <point x="726" y="1319" type="line"/>
      <point x="941" y="1094" type="line"/>
      <point x="1054" y="682" type="line"/>
      <point x="1054" y="469" type="line"/>
      <point x="935" y="104" type="line"/>
      <point x="601" y="-41" type="line"/>
      <point x="265" y="104" type="line"/>
      <point x="125" y="480" type="line"/>
      <point x="265" y="858" type="line"/>
      <point x="599" y="984" type="line"/>
      <point x="870" y="822" type="line"/>
      <point x="815" y="1022" type="line"/>
      <point x="629" y="1218" type="line"/>
      <point x="461" y="1046" type="line"/>
      <point x="361" y="1144" type="line"/>
      <point x="507" y="1294" type="line"/>
      <point x="281" y="1373" type="line"/>
    </contour>
    <contour>
      <point x="375" y="208" type="line"/>
      <point x="601" y="111" type="line"/>
      <point x="821" y="208" type="line"/>
      <point x="914" y="491" type="line"/>
      <point x="914" y="633" type="line"/>
      <point x="585" y="830" type="line"/>
      <point x="375" y="750" type="line"/>
      <point x="275" y="480" type="line"/>
    </contour>
  </outline>
</glyph>
<glyph name="divide" format="2">
  <advance width="1200"/>
  <unicode hex="00F7"/>
  <outline>
    <contour>
      <point x="960" y="697" type="line"/>
      <point x="960" y="553" type="line"/>
      <point x="240" y="553" type="line"/>
      <point x="240" y="697" type="line"/>
    </contour>
    <contour>
      <point x="545" y="1150" type="line"/>
      <point x="656" y="1150" type="line"/>
      <point x="735" y="1073" type="line"/>
      <point x="735" y="959" type="line"/>
      <point x="656" y="883" type="line"/>
      <point x="545" y="883" type="line"/>
      <point x="468" y="959" type="line"/>
      <point x="468" y="1073" type="line"/>
    </contour>
    <contour>
      <point x="545" y="358" type="line"/>
      <point x="656" y="358" type="line"/>
      <point x="735" y="281" type="line"/>
      <point x="735" y="167" type="line"/>
      <point x="656" y="91" type="line"/>
      <point x="545" y="91" type="line"/>
      <point x="468" y="167" type="line"/>
      <point x="468" y="281" type="line"/>
    </contour>
  </outline>
</glyph>
<glyph name="oslash" format="2">
  <advance width="1200"/>
  <unicode hex="00F8"/>
  <anchor x="600" y="1206" name="top"/>
  <anchor x="600" y="-150" name="bottom"/>
  <outline>
    <component base="o"/>
    <contour>
      <point x="902" y="1391" type="line"/>
      <point x="1030" y="1330" type="line"/>
      <point x="269" y="-239" type="line"/>
      <point x="141" y="-178" type="line"/>
    </contour>
  </outline>
</glyph>
<glyph name="dcaron" format="2">
  <advance width="1200"/>
  <unicode hex="010F"/>
  <anchor x="600" y="1638" name="top"/>
  <anchor x="600" y="-150" name="bottom"/>
  <anchor x="80" y="580" name="left"/>
  <anchor x="960" y="580" name="right"/>
  <anchor x="800" y="1200" name="middleTop"/>
  <outline>
    <component base="commaaccentcomb" xOffset="422.244" yOffset="484.283"/>
    <contour>
      <point x="240" y="848" type="line"/>
      <point x="303" y="912" type="line"/>
      <point x="603" y="912" type="line"/>
      <point x="680" y="798" type="line"/>
      <point x="680" y="204" type="line"/>
      <point x="621" y="145" type="line"/>
      <point x="317" y="145" type="line"/>
      <point x="240" y="259" type="line"/>
    </contour>
    <contour>
      <point x="680" y="962" type="line"/>
      <point x="521" y="1057" type="line"/>
      <point x="240" y="1057" type="line"/>
      <point x="80" y="889" type="line"/>
      <point x="80" y="240" type="line"/>
      <point x="244" y="0" type="line"/>
      <point x="521" y="0" type="line"/>
      <point x="680" y="95" type="line"/>
      <point x="680" y="0" type="line"/>
      <point x="840" y="0" type="line"/>
      <point x="840" y="1488" type="line"/>
      <point x="680" y="1488" type="line"/>
    </contour>
  </outline>
</glyph>
<glyph name="dotlessi" format="2">
  <advance width="1200"/>
  <unicode hex="0131"/>
  <anchor x="600" y="1310" name="top"/>
  <anchor x="600" y="-150" name="bottom"/>
  <outline>
    <contour>
      <point x="240" y="1065" type="line"/>
      <point x="240" y="921" type="line"/>
      <point x="445" y="921" type="line"/>
      <point x="520" y="808" type="line"/>
      <point x="520" y="154" type="line"/>
      <point x="161" y="154" type="line"/>
      <point x="161" y="10" type="line"/>
      <point x="1040" y="10" type="line"/>
      <point x="1040" y="154" type="line"/>
      <point x="680" y="154" type="line"/>
      <point x="680" y="828" type="line"/>
      <point x="520" y="1065" type="line"/>
    </contour>
  </outline>
</glyph>
<glyph name="ij" format="2">
  <advance width="1200"/>
  <unicode hex="0133"/>
  <outline>
    <contour>
      <point x="160" y="1297" type="line"/>
      <point x="160" y="1490" type="line"/>
      <point x="360" y="1490" type="line"/>
      <point x="360" y="1297" type="line"/>
    </contour>
    <contour>
      <point x="841" y="1297" type="line"/>
      <point x="841" y="1490" type="line"/>
      <point x="1041" y="1490" type="line"/>
      <point x="1041" y="1297" type="line"/>
    </contour>
    <contour>
      <point x="860" y="1056" type="line" name=".hr01"/>
      <point x="1020" y="1056" type="line"/>
      <point x="1020" y="-97" type="line"/>
      <point x="696" y="-432" type="line"/>
      <point x="421" y="-432" type="line"/>
      <point x="421" y="-288" type="line"/>
      <point x="637" y="-288" type="line"/>
      <point x="860" y="-56" type="line"/>
      <point x="860" y="-28" type="line"/>
      <point x="180" y="144" type="line"/>
      <point x="180" y="1055" type="line"/>
      <point x="340" y="1055" type="line"/>
      <point x="340" y="240" type="line"/>
      <point x="860" y="125" type="line"/>
    </contour>
  </outline>
</glyph>
<glyph name="Eng" format="2">
  <advance width="1200"/>
  <unicode hex="014A"/>
  <anchor x="960" y="1541" name="top"/>
  <outline>
    <component base="N"/>
    <contour>
      <point x="1040" y="195" type="line"/>
      <point x="1040" y="-16" type="line"/>
      <point x="720" y="-353" type="line"/>
      <point x="480" y="-353" type="line"/>
      <point x="480" y="-209" type="line"/>
      <point x="658" y="-209" type="line"/>
      <point x="880" y="26" type="line"/>
      <point x="880" y="177" type="line"/>
    </contour>
  </outline>
</glyph>
<glyph name="oe" format="2">
  <advance width="1200"/>
  <unicode hex="0153"/>
  <outline>
    <contour>
      <point x="169" y="1056" type="line"/>
      <point x="526" y="1056" type="line"/>
      <point x="591" y="958" type="line"/>
      <point x="686" y="1056" type="line"/>
      <point x="1031" y="1056" type="line"/>
      <point x="1191" y="819" type="line"/>
      <point x="864" y="481" type="line"/>
      <point x="686" y="481" type="line"/>
      <point x="686" y="258" type="line"/>
      <point x="763" y="144" type="line"/>
      <point x="970" y="144" type="line"/>
      <point x="1087" y="265" type="line"/>
      <point x="1169" y="144" type="line"/>
      <point x="1031" y="0" type="line"/>
      <point x="687" y="0" type="line"/>
      <point x="621" y="99" type="line"/>
      <point x="526" y="0" type="line"/>
      <point x="171" y="0" type="line"/>
      <point x="10" y="239" type="line"/>
      <point x="10" y="891" type="line"/>
    </contour>
    <contour>
      <point x="170" y="258" type="line"/>
      <point x="248" y="144" type="line"/>
      <point x="466" y="144" type="line"/>
      <point x="526" y="206" type="line"/>
      <point x="526" y="799" type="line"/>
      <point x="449" y="912" type="line"/>
      <point x="231" y="912" type="line"/>
      <point x="170" y="848" type="line"/>
    </contour>
    <contour>
      <point x="686" y="850" type="line"/>
      <point x="686" y="625" type="line"/>
      <point x="804" y="625" type="line"/>
      <point x="1006" y="836" type="line"/>
      <point x="953" y="912" type="line"/>
      <point x="748" y="912" type="line"/>
    </contour>
  </outline>
</glyph>
<glyph name="tcaron" format="2">
  <advance width="1200"/>
  <unicode hex="0165"/>
  <anchor x="656" y="-130" name="bottom"/>
  <anchor x="560" y="1638" name="top"/>
  <anchor x="539" y="640" name="middleTop"/>
  <outline>
    <component base="caron.salt" xOffset="280.51" yOffset="-246"/>
    <contour>
      <point x="379" y="1488" type="line"/>
      <point x="379" y="1057" type="line"/>
      <point x="220" y="1057" type="line"/>
      <point x="220" y="912" type="line"/>
      <point x="379" y="912" type="line"/>
      <point x="379" y="235" type="line"/>
      <point x="539" y="0" type="line"/>
      <point x="884" y="0" type="line"/>
      <point x="1019" y="145" type="line"/>
      <point x="938" y="264" type="line"/>
      <point x="819" y="145" type="line"/>
      <point x="615" y="145" type="line"/>
      <point x="539" y="259" type="line"/>
      <point x="539" y="912" type="line"/>
      <point x="660.442" y="912" type="line"/>
      <point x="660.442" y="1057" type="line"/>
      <point x="539" y="1057" type="line"/>
      <point x="539" y="1488" type="line"/>
    </contour>
  </outline>
</glyph>
<glyph name="longs" format="2">
  <advance width="1200"/>
  <unicode hex="017F"/>
  <anchor x="600" y="1642" name="top"/>
  <anchor x="400" y="-150" name="bottom"/>
  <outline>
    <contour>
      <point x="502" y="1542" type="line"/>
      <point x="807.764" y="1542" type="line"/>
      <point x="807.764" y="1398" type="line"/>
      <point x="567" y="1398" type="line"/>
      <point x="480" y="1309" type="line"/>
      <point x="480" y="0" type="line"/>
      <point x="320" y="0" type="line"/>
      <point x="320" y="1355" type="line"/>
    </contour>
  </outline>
</glyph>
<glyph name="dotlessj" format="2">
  <advance width="1200"/>
  <unicode hex="0237"/>
  <anchor x="800" y="1300" name="top"/>
  <anchor x="530" y="-582" name="bottom"/>
  <outline>
    <contour>
      <point x="594" y="1066" type="line"/>
      <point x="594" y="922" type="line"/>
      <point x="798" y="922" type="line"/>
      <point x="874" y="808" type="line"/>
      <point x="874" y="-47" type="line"/>
      <point x="651" y="-278" type="line"/>
      <point x="315" y="-278" type="line"/>
      <point x="315" y="-422" type="line"/>
      <point x="710" y="-422" type="line"/>
      <point x="1034" y="-87" type="line"/>
      <point x="1034" y="826" type="line"/>
      <point x="874" y="1066" type="line"/>
    </contour>
  </outline>
</glyph>
<glyph name="circumflex" format="2">
  <advance width="1200"/>
  <unicode hex="02C6"/>
  <anchor x="600" y="1200" name="_top"/>
  <anchor x="600" y="1560" name="top"/>
  <outline>
    <contour>
      <point x="646" y="1478" type="line"/>
      <point x="911" y="1276" type="line"/>
      <point x="849" y="1204" type="line"/>
      <point x="600" y="1362" type="line"/>
      <point x="354" y="1204" type="line"/>
      <point x="290" y="1276" type="line"/>
      <point x="557" y="1478" type="line"/>
    </contour>
  </outline>
</glyph>
<glyph name="uni02C9" format="2">
  <advance width="1200"/>
  <unicode hex="02C9"/>
  <outline>
    <contour>
      <point x="857" y="1374" type="line"/>
      <point x="341" y="1374" type="line"/>
      <point x="341" y="1475" type="line"/>
      <point x="857" y="1475" type="line"/>
    </contour>
  </outline>
</glyph>
<glyph name="ogonek" format="2">
  <advance width="1200"/>
  <unicode hex="02DB"/>
  <anchor x="600" y="-140" name="_bottom"/>
  <outline>
    <contour>
      <point x="759" y="-207" type="line"/>
      <point x="759" y="-329" type="line"/>
      <point x="600" y="-329" type="line"/>
      <point x="441" y="-197" type="line"/>
      <point x="441" y="-135" type="line"/>
      <point x="600" y="-13" type="line"/>
      <point x="600" y="20" type="line"/>
      <point x="760" y="20" type="line"/>
      <point x="760" y="-12" type="line"/>
      <point x="560" y="-137" type="line"/>
      <point x="560" y="-207" type="line"/>
    </contour>
  </outline>
</glyph>
<glyph name="tildecomb" format="2">
  <advance width="1200"/>
  <unicode hex="0303"/>
  <anchor x="603" y="1281" name="_top"/>
  <anchor x="603" y="1561" name="top"/>
  <outline>
    <contour>
      <point x="936" y="1506" type="line"/>
      <point x="999" y="1398" type="line"/>
      <point x="794" y="1276" type="line"/>
      <point x="433" y="1378" type="line"/>
      <point x="270" y="1279" type="line"/>
      <point x="207" y="1387" type="line"/>
      <point x="412" y="1509" type="line"/>
      <point x="779" y="1411" type="line"/>
    </contour>
  </outline>
</glyph>
<glyph name="macroncomb" format="2">
  <advance width="1200"/>
  <unicode hex="0304"/>
  <anchor x="603" y="1230" name="_top"/>
  <anchor x="603" y="1471" name="top"/>
  <outline>
    <contour>
      <point x="863" y="1227" type="line"/>
      <point x="863" y="1371" type="line"/>
      <point x="343" y="1371" type="line"/>
      <point x="343" y="1227" type="line"/>
    </contour>
  </outline>
</glyph>
<glyph name="overlinecomb" format="2">
  <advance width="1200"/>
  <unicode hex="0305"/>
  <anchor x="602" y="1250" name="_top"/>
  <anchor x="602" y="1350" name="_bottom"/>
  <anchor x="603" y="1449" name="top"/>
  <anchor x="603" y="1148" name="bottom"/>
  <outline>
    <contour>
      <point x="1020" y="1248" type="line"/>
      <point x="183" y="1248" type="line"/>
      <point x="183" y="1349" type="line"/>
      <point x="1020" y="1349" type="line"/>
    </contour>
  </outline>
</glyph>
<glyph name="brevecomb" format="2">
  <advance width="1200"/>
  <unicode hex="0306"/>
  <anchor x="600" y="1300" name="_top"/>
  <anchor x="600" y="1722" name="top"/>
  <outline>
    <contour>
      <point x="280" y="1500" type="line"/>
      <point x="479.875" y="1300" type="line"/>
      <point x="720.125" y="1300" type="line"/>
      <point x="920" y="1500" type="line"/>
      <point x="920" y="1605" type="line"/>
      <point x="760" y="1605" type="line"/>
      <point x="760" y="1420" type="line"/>
      <point x="440" y="1420" type="line"/>
      <point x="440" y="1605" type="line"/>
      <point x="280" y="1605" type="line"/>
    </contour>
  </outline>
</glyph>
<glyph name="dotaccentcomb" format="2">
  <advance width="1200"/>
  <unicode hex="0307"/>
  <anchor x="600" y="1300" name="_top"/>
  <anchor x="600" y="1591" name="top"/>
  <outline>
    <contour>
      <point x="500" y="1300" type="line"/>
      <point x="700" y="1300" type="line"/>
      <point x="700" y="1492" type="line"/>
      <point x="500" y="1492" type="line"/>
    </contour>
  </outline>
</glyph>
<glyph name="dieresiscomb" format="2">
  <advance width="1200"/>
  <unicode hex="0308"/>
  <anchor x="600" y="1301" name="_top"/>
  <anchor x="603" y="1585" name="top"/>
  <outline>
    <contour>
      <point x="720" y="1300" type="line"/>
      <point x="919" y="1300" type="line"/>
      <point x="919" y="1493" type="line"/>
      <point x="720" y="1493" type="line"/>
    </contour>
    <contour>
      <point x="281" y="1300" type="line"/>
      <point x="480" y="1300" type="line"/>
      <point x="480" y="1492" type="line"/>
      <point x="281" y="1492" type="line"/>
    </contour>
  </outline>
</glyph>
<glyph name="hookabovecomb" format="2">
  <advance width="1200"/>
  <unicode hex="0309"/>
  <anchor x="600" y="1010" name="_top"/>
  <anchor x="600" y="1637" name="top"/>
  <outline>
    <contour>
      <point x="441" y="1436" type="line"/>
      <point x="640" y="1436" type="line"/>
      <point x="640" y="1276" type="line"/>
      <point x="480" y="1152" type="line"/>
      <point x="480" y="1010" type="line"/>
      <point x="600" y="1010" type="line"/>
      <point x="600" y="1152" type="line"/>
      <point x="759" y="1274" type="line"/>
      <point x="759" y="1427" type="line"/>
      <point x="600" y="1559" type="line"/>
      <point x="441" y="1559" type="line"/>
    </contour>
  </outline>
</glyph>
<glyph name="ringcomb" format="2">
  <advance width="1200"/>
  <unicode hex="030A"/>
  <anchor x="602" y="1140" name="_top"/>
  <anchor x="602" y="1647" name="top"/>
  <outline>
    <contour>
      <point x="511" y="1563" type="line"/>
      <point x="688" y="1563" type="line"/>
      <point x="814" y="1440" type="line"/>
      <point x="814" y="1261" type="line"/>
      <point x="688" y="1139" type="line"/>
      <point x="511" y="1139" type="line"/>
      <point x="389" y="1261" type="line"/>
      <point x="389" y="1440" type="line"/>
    </contour>
    <contour>
      <point x="556" y="1460" type="line"/>
      <point x="492" y="1397" type="line"/>
      <point x="492" y="1305" type="line"/>
      <point x="556" y="1242" type="line"/>
      <point x="646" y="1242" type="line"/>
      <point x="711" y="1304" type="line"/>
      <point x="711" y="1398" type="line"/>
      <point x="646" y="1460" type="line"/>
    </contour>
  </outline>
</glyph>
<glyph name="hungarumlautcomb" format="2">
  <advance width="1200"/>
  <unicode hex="030B"/>
  <anchor x="600" y="1160" name="_top"/>
  <anchor x="600" y="1601" name="top"/>
  <outline>
    <contour>
      <point x="288" y="1206" type="line"/>
      <point x="430" y="1539" type="line"/>
      <point x="559" y="1477" type="line"/>
      <point x="381" y="1160" type="line"/>
    </contour>
    <contour>
      <point x="616" y="1209" type="line"/>
      <point x="784" y="1544" type="line"/>
      <point x="911" y="1475" type="line"/>
      <point x="705" y="1160" type="line"/>
    </contour>
  </outline>
</glyph>
<glyph name="caroncomb" format="2">
  <advance width="1200"/>
  <unicode hex="030C"/>
  <anchor x="600" y="1200" name="_top"/>
  <anchor x="600" y="1578" name="top"/>
  <outline>
    <contour>
      <point x="646" y="1204" type="line"/>
      <point x="911" y="1406" type="line"/>
      <point x="849" y="1478" type="line"/>
      <point x="600" y="1320" type="line"/>
      <point x="354" y="1478" type="line"/>
      <point x="290" y="1406" type="line"/>
      <point x="557" y="1204" type="line"/>
    </contour>
  </outline>
</glyph>
<glyph name="vlinecomb" format="2">
  <advance width="1200"/>
  <unicode hex="030D"/>
  <anchor x="600" y="1250" name="_top"/>
  <anchor x="600" y="1698" name="top"/>
  <outline>
    <contour>
      <point x="520" y="1250" type="line"/>
      <point x="680" y="1250" type="line"/>
      <point x="680" y="1600" type="line"/>
      <point x="520" y="1600" type="line"/>
    </contour>
  </outline>
</glyph>
<glyph name="dblvlinecomb" format="2">
  <advance width="1200"/>
  <unicode hex="030E"/>
  <anchor x="600" y="1250" name="_top"/>
  <anchor x="600" y="1600" name="_bottom"/>
  <outline>
    <contour>
      <point x="680" y="1250" type="line"/>
      <point x="840" y="1250" type="line"/>
      <point x="840" y="1600" type="line"/>
      <point x="680" y="1600" type="line"/>
    </contour>
    <contour>
      <point x="360" y="1250" type="line"/>
      <point x="520" y="1250" type="line"/>
      <point x="520" y="1600" type="line"/>
      <point x="360" y="1600" type="line"/>
    </contour>
  </outline>
</glyph>
<glyph name="dblgravecomb" format="2">
  <advance width="1200"/>
  <unicode hex="030F"/>
  <anchor x="603" y="1240" name="_top"/>
  <anchor x="603" y="1660" name="_bottom"/>
  <outline>
    <contour>
      <point x="729" y="1673" type="line"/>
      <point x="608" y="1619" type="line"/>
      <point x="830" y="1245" type="line"/>
      <point x="905" y="1276" type="line"/>
    </contour>
    <contour>
      <point x="413" y="1657" type="line"/>
      <point x="300" y="1589" type="line"/>
      <point x="565" y="1245" type="line"/>
      <point x="637" y="1285" type="line"/>
    </contour>
  </outline>
</glyph>
<glyph name="breveinvertedcomb" format="2">
  <advance width="1200"/>
  <unicode hex="0311"/>
  <anchor x="600" y="1340" name="_top"/>
  <anchor x="600" y="1640" name="_bottom"/>
  <outline>
    <contour>
      <point x="280" y="1445" type="line"/>
      <point x="480" y="1645" type="line"/>
      <point x="721" y="1645" type="line"/>
      <point x="920" y="1445" type="line"/>
      <point x="920" y="1340" type="line"/>
      <point x="761" y="1340" type="line"/>
      <point x="761" y="1525" type="line"/>
      <point x="440" y="1525" type="line"/>
      <point x="440" y="1340" type="line"/>
      <point x="280" y="1340" type="line"/>
    </contour>
  </outline>
</glyph>
<glyph name="commaturnedabovecomb" format="2">
  <advance width="1200"/>
  <unicode hex="0312"/>
  <anchor x="600" y="1160" name="_top"/>
  <anchor x="600" y="1626" name="top"/>
  <outline>
    <contour>
      <point x="748" y="1495" type="line"/>
      <point x="580" y="1160" type="line"/>
      <point x="453" y="1229" type="line"/>
      <point x="659" y="1544" type="line"/>
    </contour>
  </outline>
</glyph>
<glyph name="commareversedabovecomb" format="2">
  <advance width="1200"/>
  <unicode hex="0314"/>
  <anchor x="600" y="1160" name="_top"/>
  <anchor x="600" y="1626" name="top"/>
  <outline>
    <contour>
      <point x="749" y="1209" type="line"/>
      <point x="660" y="1160" type="line"/>
      <point x="454" y="1475" type="line"/>
      <point x="581" y="1544" type="line"/>
    </contour>
  </outline>
</glyph>
<glyph name="commaaboverightcomb" format="2">
  <advance width="1200"/>
  <unicode hex="0315"/>
  <anchor x="600" y="1160" name="_top"/>
  <anchor x="600" y="1550" name="_bottom"/>
  <outline>
    <contour>
      <point x="461" y="1209" type="line"/>
      <point x="629" y="1544" type="line"/>
      <point x="756" y="1475" type="line"/>
      <point x="550" y="1160" type="line"/>
    </contour>
  </outline>
</glyph>
<glyph name="gravebelowcomb" format="2">
  <advance width="1200"/>
  <unicode hex="0316"/>
  <anchor x="600" y="-481" name="bottom"/>
  <anchor x="600" y="-160" name="_bottom"/>
  <outline>
    <contour>
      <point x="427" y="-162" type="line"/>
      <point x="363" y="-278" type="line"/>
      <point x="765" y="-443" type="line"/>
      <point x="807" y="-373" type="line"/>
    </contour>
  </outline>
</glyph>
<glyph name="acutebelowcomb" format="2">
  <advance width="1200"/>
  <unicode hex="0317"/>
  <anchor x="600" y="-160" name="_bottom"/>
  <anchor x="583" y="-549" name="bottom"/>
  <outline>
    <contour>
      <point x="758" y="-162" type="line"/>
      <point x="822" y="-278" type="line"/>
      <point x="420" y="-443" type="line"/>
      <point x="378" y="-373" type="line"/>
    </contour>
  </outline>
</glyph>
<glyph name="commaaccentcomb" format="2">
  <advance width="1200"/>
  <unicode hex="0326"/>
  <anchor x="600" y="501" name="_top"/>
  <anchor x="600" y="1105" name="top"/>
  <outline>
    <contour>
      <point x="490" y="1004" type="line"/>
      <point x="710" y="1004" type="line"/>
      <point x="710" y="693" type="line"/>
      <point x="537" y="518" type="line"/>
      <point x="479" y="607" type="line"/>
      <point x="610" y="743" type="line" name=".hr01"/>
      <point x="610" y="830" type="line"/>
      <point x="490" y="830" type="line" name=".hr02"/>
    </contour>
  </outline>
</glyph>
<glyph name="dbllowlinecomb" format="2">
  <advance width="1200"/>
  <unicode hex="0333"/>
  <anchor x="600" y="-151" name="_bottom"/>
  <anchor x="603" y="-654" name="bottom"/>
  <outline>
    <contour>
      <point x="940" y="-294.448" type="line"/>
      <point x="940" y="-150.448" type="line"/>
      <point x="260" y="-150.448" type="line"/>
      <point x="260" y="-294.448" type="line"/>
    </contour>
    <contour>
      <point x="940" y="-547.137" type="line"/>
      <point x="940" y="-403.137" type="line"/>
      <point x="260" y="-403.137" type="line"/>
      <point x="260" y="-547.137" type="line"/>
    </contour>
  </outline>
</glyph>
<glyph name="strokeshortcomb" format="2">
  <advance width="1200"/>
  <unicode hex="0335"/>
  <anchor x="600" y="784" name="_bottom"/>
  <anchor x="603" y="496" name="bottom"/>
  <outline>
    <contour>
      <point x="940" y="640" type="line"/>
      <point x="940" y="784" type="line"/>
      <point x="260" y="784" type="line"/>
      <point x="260" y="640" type="line"/>
    </contour>
  </outline>
</glyph>
<glyph name="strokelongcomb" format="2">
  <advance width="1200"/>
  <unicode hex="0336"/>
  <anchor x="600" y="800" name="_bottom"/>
  <anchor x="603" y="478" name="bottom"/>
  <outline>
    <contour>
      <point x="39.8065" y="640" type="line"/>
      <point x="1160" y="640" type="line"/>
      <point x="1160" y="800" type="line"/>
      <point x="39.8065" y="800" type="line"/>
    </contour>
  </outline>
</glyph>
<glyph name="pi" format="2">
  <advance width="1200"/>
  <unicode hex="03C0"/>
  <anchor x="600" y="-150" name="bottom"/>
  <anchor x="600" y="1310" name="top"/>
  <outline>
    <contour>
      <point x="1145" y="1060" type="line"/>
      <point x="1145" y="916" type="line"/>
      <point x="963" y="916" type="line"/>
      <point x="963" y="270" type="line"/>
      <point x="1088" y="0" type="line"/>
      <point x="944" y="0" type="line"/>
      <point x="819" y="280" type="line"/>
      <point x="819" y="916" type="line"/>
      <point x="384" y="916" type="line"/>
      <point x="384" y="0" type="line"/>
      <point x="240" y="0" type="line"/>
      <point x="240" y="916" type="line"/>
      <point x="55" y="916" type="line"/>
      <point x="55" y="1060" type="line"/>
    </contour>
  </outline>
</glyph>
<glyph name="Germandbls" format="2">
  <advance width="1200"/>
  <unicode hex="1E9E"/>
  <outline>
    <contour>
      <point x="479" y="1393" type="line"/>
      <point x="1041" y="1393" type="line"/>
      <point x="1041" y="1227" type="line"/>
      <point x="646" y="815" type="line"/>
      <point x="824" y="815" type="line"/>
      <point x="1040" y="493" type="line"/>
      <point x="1040" y="174" type="line"/>
      <point x="871" y="0" type="line"/>
      <point x="570" y="0" type="line"/>
      <point x="570" y="144" type="line"/>
      <point x="812" y="144" type="line"/>
      <point x="880" y="217" type="line"/>
      <point x="880" y="476" type="line"/>
      <point x="748" y="671" type="line"/>
      <point x="459" y="671" type="line"/>
      <point x="459" y="832" type="line"/>
      <point x="862" y="1249" type="line"/>
      <point x="540" y="1249" type="line"/>
      <point x="320" y="1019" type="line"/>
      <point x="320" y="0" type="line"/>
      <point x="160" y="0" type="line"/>
      <point x="160" y="1062" type="line"/>
    </contour>
  </outline>
</glyph>
<glyph name="endash" format="2">
  <advance width="1200"/>
  <unicode hex="2013"/>
  <outline>
    <contour>
      <point x="1100" y="600" type="line"/>
      <point x="100" y="600" type="line"/>
      <point x="100" y="744" type="line"/>
      <point x="1100" y="744" type="line"/>
    </contour>
  </outline>
</glyph>
<glyph name="quoteleft" format="2">
  <advance width="1200"/>
  <unicode hex="2018"/>
  <anchor x="580" y="1653" name="_bottom"/>
  <anchor x="580" y="1056" name="_top"/>
  <outline>
    <contour>
      <point x="616" y="1653" type="line"/>
      <point x="693" y="1533" type="line"/>
      <point x="600" y="1434" type="line"/>
      <point x="600" y="1319" type="line"/>
      <point x="720" y="1319" type="line" name=".hr01"/>
      <point x="720" y="1056" type="line"/>
      <point x="440" y="1056" type="line"/>
      <point x="440" y="1472" type="line"/>
    </contour>
  </outline>
</glyph>
<glyph name="ellipsis" format="2">
  <advance width="1200"/>
  <unicode hex="2026"/>
  <outline>
    <contour>
      <point x="840" y="0" type="line"/>
      <point x="840" y="264" type="line"/>
      <point x="1120" y="264" type="line"/>
      <point x="1120" y="0" type="line"/>
    </contour>
    <contour>
      <point x="460" y="0" type="line"/>
      <point x="460" y="264" type="line"/>
      <point x="740" y="264" type="line"/>
      <point x="740" y="0" type="line"/>
    </contour>
    <contour>
      <point x="82" y="0" type="line"/>
      <point x="82" y="264" type="line"/>
      <point x="362" y="264" type="line"/>
      <point x="362" y="0" type="line"/>
    </contour>
  </outline>
</glyph>
<glyph name="guilsinglright" format="2">
  <advance width="1200"/>
  <unicode hex="203A"/>
  <outline>
    <contour>
      <point x="667" y="591" type="line"/>
      <point x="396" y="1007" type="line"/>
      <point x="468" y="1051" type="line"/>
      <point x="804" y="639" type="line"/>
      <point x="804" y="541" type="line"/>
      <point x="468" y="133" type="line"/>
      <point x="396" y="176" type="line"/>
    </contour>
  </outline>
</glyph>
<glyph name="fraction" format="2">
  <advance width="1200"/>
  <unicode hex="2044"/>
  <outline>
    <contour>
      <point x="94" y="373" type="line"/>
      <point x="38" y="467" type="line"/>
      <point x="1108" y="979" type="line"/>
      <point x="1162" y="885" type="line"/>
    </contour>
  </outline>
</glyph>
<glyph name="Euro" format="2">
  <advance width="1200"/>
  <unicode hex="20AC"/>
  <outline>
    <contour>
      <point x="320" y="1184" type="line"/>
      <point x="320" y="960" type="line"/>
      <point x="780" y="960" type="line"/>
      <point x="780" y="816" type="line"/>
      <point x="320" y="816" type="line"/>
      <point x="320" y="672" type="line"/>
      <point x="780" y="672" type="line"/>
      <point x="780" y="528" type="line"/>
      <point x="320" y="528" type="line"/>
      <point x="320" y="259" type="line"/>
      <point x="397" y="144" type="line"/>
      <point x="821" y="144" type="line"/>
      <point x="936" y="267" type="line"/>
      <point x="1021" y="144" type="line"/>
      <point x="880" y="0" type="line"/>
      <point x="320" y="0" type="line"/>
      <point x="160" y="238" type="line"/>
      <point x="160" y="528" type="line"/>
      <point x="80" y="528" type="line"/>
      <point x="80" y="672" type="line"/>
      <point x="160" y="672" type="line"/>
      <point x="160" y="816" type="line"/>
      <point x="80" y="816" type="line"/>
      <point x="80" y="960" type="line"/>
      <point x="160" y="960" type="line"/>
      <point x="160" y="1227" type="line"/>
      <point x="321" y="1392" type="line"/>
      <point x="880" y="1392" type="line"/>
      <point x="1012" y="1197" type="line"/>
      <point x="910" y="1091" type="line"/>
      <point x="804" y="1248" type="line"/>
      <point x="380" y="1248" type="line"/>
    </contour>
  </outline>
</glyph>
<glyph name="universal" format="2">
  <advance width="1200"/>
  <unicode hex="2200"/>
  <outline>
    <contour>
      <point x="160" y="317" type="line"/>
      <point x="160" y="1374" type="line"/>
      <point x="320" y="1374" type="line"/>
      <point x="320" y="703" type="line"/>
      <point x="880" y="703" type="line"/>
      <point x="880" y="1374" type="line"/>
      <point x="1040" y="1374" type="line"/>
      <point x="1040" y="-18" type="line"/>
      <point x="484" y="-18" type="line"/>
    </contour>
    <contour>
      <point x="320" y="355" type="line"/>
      <point x="541" y="126" type="line"/>
      <point x="880" y="126" type="line"/>
      <point x="880" y="559" type="line"/>
      <point x="320" y="559" type="line"/>
    </contour>
  </outline>
</glyph>
<glyph name="product" format="2">
  <advance width="1200"/>
  <unicode hex="220F"/>
  <outline>
    <contour>
      <point x="1145" y="1374" type="line"/>
      <point x="1145" y="1261" type="line"/>
      <point x="955" y="1261" type="line"/>
      <point x="955" y="-401" type="line"/>
      <point x="827" y="-418" type="line"/>
      <point x="827" y="1261" type="line"/>
      <point x="376" y="1261" type="line"/>
      <point x="376" y="-401" type="line"/>
      <point x="248" y="-418" type="line"/>
      <point x="248" y="1261" type="line"/>
      <point x="55" y="1261" type="line"/>
      <point x="55" y="1374" type="line"/>
    </contour>
  </outline>
</glyph>
<glyph name="summation" format="2">
  <advance width="1200"/>
  <unicode hex="2211"/>
  <outline>
    <contour>
      <point x="1026" y="1629" type="line"/>
      <point x="1026" y="1510" type="line"/>
      <point x="321" y="1510" type="line"/>
      <point x="795" y="759" type="line"/>
      <point x="795" y="621" type="line"/>
      <point x="321" y="-111" type="line"/>
      <point x="1026" y="-111" type="line"/>
      <point x="1026" y="-230" type="line"/>
      <point x="167" y="-230" type="line"/>
      <point x="167" y="-107" type="line"/>
      <point x="683" y="686" type="line"/>
      <point x="167" y="1505" type="line"/>
      <point x="167" y="1629" type="line"/>
    </contour>
  </outline>
</glyph>
<glyph name="uni2219" format="2">
  <advance width="1200"/>
  <unicode hex="2219"/>
  <outline>
    <contour>
      <point x="460" y="540" type="line"/>
      <point x="460" y="804" type="line"/>
      <point x="740" y="804" type="line"/>
      <point x="740" y="540" type="line"/>
    </contour>
  </outline>
</glyph>
<glyph name="approxequal" format="2">
  <advance width="1200"/>
  <unicode hex="2248"/>
  <outline>
    <contour>
      <point x="936" y="925" type="line"/>
      <point x="774" y="827" type="line"/>
      <point x="408" y="925" type="line"/>
      <point x="190" y="795" type="line"/>
      <point x="264" y="670" type="line"/>
      <point x="431" y="772" type="line"/>
      <point x="792" y="670" type="line"/>
      <point x="1010" y="800" type="line"/>
    </contour>
    <contour>
      <point x="936" y="533" type="line"/>
      <point x="774" y="435" type="line"/>
      <point x="408" y="533" type="line"/>
      <point x="190" y="403" type="line"/>
      <point x="264" y="278" type="line"/>
      <point x="431" y="380" type="line"/>
      <point x="792" y="278" type="line"/>
      <point x="1010" y="408" type="line"/>
    </contour>
  </outline>
</glyph>
<glyph name="heavyhorz" format="2">
  <advance width="1200"/>
  <unicode hex="2501"/>
  <outline>
    <contour>
      <point x="1210" y="940" type="line"/>
      <point x="1210" y="460" type="line"/>
      <point x="-10" y="460" type="line"/>
      <point x="-10" y="940" type="line"/>
    </contour>
  </outline>
</glyph>
<glyph name="heavytrpldashhorz" format="2">
  <advance width="1200"/>
  <unicode hex="2505"/>
  <outline>
    <contour>
      <point x="320" y="940" type="line"/>
      <point x="320" y="460" type="line"/>
      <point x="80" y="460" type="line"/>
      <point x="80" y="940" type="line"/>
    </contour>
    <contour>
      <point x="720" y="940" type="line"/>
      <point x="720" y="460" type="line"/>
      <point x="480" y="460" type="line"/>
      <point x="480" y="940" type="line"/>
    </contour>
    <contour>
      <point x="1120" y="940" type="line"/>
      <point x="1120" y="460" type="line"/>
      <point x="880" y="460" type="line"/>
      <point x="880" y="940" type="line"/>
    </contour>
  </outline>
</glyph>
<glyph name="lighttrpldashvert" format="2">
  <advance width="1200"/>
  <unicode hex="2506"/>
  <outline>
    <contour>
      <point x="520" y="280" type="line"/>
      <point x="680" y="280" type="line"/>
      <point x="680" y="-520" type="line"/>
      <point x="520" y="-520" type="line"/>
    </contour>
    <contour>
      <point x="520" y="1240" type="line"/>
      <point x="680" y="1240" type="line"/>
      <point x="680" y="440" type="line"/>
      <point x="520" y="440" type="line"/>
    </contour>
    <contour>
      <point x="520" y="2200" type="line"/>
      <point x="680" y="2200" type="line"/>
      <point x="680" y="1400" type="line"/>
      <point x="520" y="1400" type="line"/>
    </contour>
  </outline>
</glyph>
<glyph name="heavytrpldashvert" format="2">
  <advance width="1200"/>
  <unicode hex="2507"/>
  <outline>
    <contour>
      <point x="360" y="280" type="line"/>
      <point x="840" y="280" type="line"/>
      <point x="840" y="-520" type="line"/>
      <point x="360" y="-520" type="line"/>
    </contour>
    <contour>
      <point x="360" y="1240" type="line"/>
      <point x="840" y="1240" type="line"/>
      <point x="840" y="440" type="line"/>
      <point x="360" y="440" type="line"/>
    </contour>
    <contour>
      <point x="360" y="2200" type="line"/>
      <point x="840" y="2200" type="line"/>
      <point x="840" y="1400" type="line"/>
      <point x="360" y="1400" type="line"/>
    </contour>
  </outline>
</glyph>
<glyph name="heavyquaddashhorz" format="2">
  <advance width="1200"/>
  <unicode hex="2509"/>
  <outline>
    <contour>
      <point x="375" y="940" type="line"/>
      <point x="525" y="940" type="line"/>
      <point x="525" y="460" type="line"/>
      <point x="375" y="460" type="line"/>
    </contour>
    <contour>
      <point x="675" y="940" type="line"/>
      <point x="825" y="940" type="line"/>
      <point x="825" y="460" type="line"/>
      <point x="675" y="460" type="line"/>
    </contour>
    <contour>
      <point x="75" y="940" type="line"/>
      <point x="225" y="940" type="line"/>
      <point x="225" y="460" type="line"/>
      <point x="75" y="460" type="line"/>
    </contour>
    <contour>
      <point x="975" y="940" type="line"/>
      <point x="1125" y="940" type="line"/>
      <point x="1125" y="460" type="line"/>
      <point x="975" y="460" type="line"/>
    </contour>
  </outline>
</glyph>
<glyph name="lightquaddashvert" format="2">
  <advance width="1200"/>
  <unicode hex="250A"/>
  <outline>
    <contour>
      <point x="520" y="20" type="line"/>
      <point x="680" y="20" type="line"/>
      <point x="680" y="-520" type="line"/>
      <point x="520" y="-520" type="line"/>
    </contour>
    <contour>
      <point x="520" y="720" type="line"/>
      <point x="680" y="720" type="line"/>
      <point x="680" y="180" type="line"/>
      <point x="520" y="180" type="line"/>
    </contour>
    <contour>
      <point x="520" y="1420" type="line"/>
      <point x="680" y="1420" type="line"/>
      <point x="680" y="880" type="line"/>
      <point x="520" y="880" type="line"/>
    </contour>
    <contour>
      <point x="520" y="2120" type="line"/>
      <point x="680" y="2120" type="line"/>
      <point x="680" y="1580" type="line"/>
      <point x="520" y="1580" type="line"/>
    </contour>
  </outline>
</glyph>
<glyph name="heavyquaddashvert" format="2">
  <advance width="1200"/>
  <unicode hex="250B"/>
  <outline>
    <contour>
      <point x="360" y="20" type="line"/>
      <point x="840" y="20" type="line"/>
      <point x="840" y="-520" type="line"/>
      <point x="360" y="-520" type="line"/>
    </contour>
    <contour>
      <point x="360" y="720" type="line"/>
      <point x="840" y="720" type="line"/>
      <point x="840" y="180" type="line"/>
      <point x="360" y="180" type="line"/>
    </contour>
    <contour>
      <point x="360" y="1420" type="line"/>
      <point x="840" y="1420" type="line"/>
      <point x="840" y="880" type="line"/>
      <point x="360" y="880" type="line"/>
    </contour>
    <contour>
      <point x="360" y="2120" type="line"/>
      <point x="840" y="2120" type="line"/>
      <point x="840" y="1580" type="line"/>
      <point x="360" y="1580" type="line"/>
    </contour>
  </outline>
</glyph>
<glyph name="dnheavyrightuplight" format="2">
  <advance width="1200"/>
  <unicode hex="251F"/>
  <outline>
    <contour>
      <point x="680" y="2000" type="line"/>
      <point x="680" y="780" type="line"/>
      <point x="1210" y="780" type="line"/>
      <point x="1210" y="620" type="line"/>
      <point x="840" y="620" type="line"/>
      <point x="840" y="-1000" type="line"/>
      <point x="360" y="-1000" type="line"/>
      <point x="360" y="780" type="line"/>
      <point x="520" y="780" type="line"/>
      <point x="520" y="2000" type="line"/>
    </contour>
  </outline>
</glyph>
<glyph name="vertheavyleftlight" format="2">
  <advance width="1200"/>
  <unicode hex="2528"/>
  <outline>
    <contour>
      <point x="840" y="2000" type="line"/>
      <point x="840" y="-1000" type="line"/>
      <point x="360" y="-1000" type="line"/>
      <point x="360" y="620" type="line"/>
      <point x="-10" y="620" type="line"/>
      <point x="-10" y="780" type="line"/>
      <point x="360" y="780" type="line"/>
      <point x="360" y="2000" type="line"/>
    </contour>
  </outline>
</glyph>
<glyph name="leftheavyrightdnlight" format="2">
  <advance width="1200"/>
  <unicode hex="252D"/>
  <outline>
    <contour>
      <point x="680" y="940" type="line"/>
      <point x="680" y="780" type="line"/>
      <point x="1210" y="780" type="line"/>
      <point x="1210" y="620" type="line"/>
      <point x="680" y="620" type="line"/>
      <point x="680" y="-1000" type="line"/>
      <point x="520" y="-1000" type="line"/>
      <point x="520" y="460" type="line"/>
      <point x="-10" y="460" type="line"/>
      <point x="-10" y="940" type="line"/>
    </contour>
  </outline>
</glyph>
<glyph name="heavyverthorz" format="2">
  <advance width="1200"/>
  <unicode hex="254B"/>
  <outline>
    <contour>
      <point x="840" y="2000" type="line"/>
      <point x="840" y="940" type="line"/>
      <point x="1210" y="940" type="line"/>
      <point x="1210" y="460" type="line"/>
      <point x="840" y="460" type="line"/>
      <point x="840" y="-1000" type="line"/>
      <point x="360" y="-1000" type="line"/>
      <point x="360" y="460" type="line"/>
      <point x="-10" y="460" type="line"/>
      <point x="-10" y="940" type="line"/>
      <point x="360" y="940" type="line"/>
      <point x="360" y="2000" type="line"/>
    </contour>
  </outline>
</glyph>
<glyph name="lightdbldashvert" format="2">
  <advance width="1200"/>
  <unicode hex="254E"/>
  <outline>
    <contour>
      <point x="680" y="760" type="line"/>
      <point x="680" y="-520" type="line"/>
      <point x="520" y="-520" type="line"/>
      <point x="520" y="760" type="line"/>
    </contour>
    <contour>
      <point x="680" y="2200" type="line"/>
      <point x="680" y="920" type="line"/>
      <point x="520" y="920" type="line"/>
      <point x="520" y="2200" type="line"/>
    </contour>
  </outline>
</glyph>
<glyph name=".notdef" format="2">
  <advance width="1200"/>
  <outline>
    <contour>
      <point x="980" y="1342" type="line"/>
      <point x="980" y="1592" type="line"/>
      <point x="220" y="1592" type="line"/>
      <point x="220" y="1364" type="line"/>
      <point x="80" y="1219" type="line"/>
      <point x="80" y="1732" type="line"/>
      <point x="1120" y="1732" type="line"/>
      <point x="1120" y="1131" type="line"/>
    </contour>
    <contour>
      <point x="80" y="150" type="line"/>
      <point x="80" y="890" type="line"/>
      <point x="220" y="890" type="line"/>
      <point x="220" y="290" type="line"/>
      <point x="360" y="290" type="line"/>
      <point x="360" y="150" type="line"/>
    </contour>
    <contour>
      <point x="980" y="724" type="line"/>
      <point x="1120" y="870" type="line"/>
      <point x="1120" y="150" type="line"/>
      <point x="840" y="150" type="line"/>
      <point x="840" y="290" type="line"/>
      <point x="980" y="290" type="line"/>
    </contour>
    <contour>
      <point x="319" y="1352" type="line"/>
      <point x="877" y="1352" type="line"/>
      <point x="1120" y="986" type="line"/>
      <point x="680" y="527" type="line" name=".hr01"/>
      <point x="680" y="344" type="line"/>
      <point x="516" y="344" type="line"/>
      <point x="516" y="564" type="line"/>
      <point x="938" y="1000" type="line"/>
      <point x="797" y="1208" type="line"/>
      <point x="380" y="1208" type="line"/>
      <point x="159" y="981" type="line"/>
      <point x="80" y="1103" type="line"/>
    </contour>
    <contour>
      <point x="497" y="-83" type="line" name=".hr01"/>
      <point x="497" y="100" type="line"/>
      <point x="703" y="100" type="line"/>
      <point x="703" y="-83" type="line"/>
    </contour>
  </outline>
</glyph>
<glyph name="backslash_slash.liga" format="2">
  <advance width="1200"/>
  <outline>
    <component base="backslash" xOffset="-1200"/>
    <component base="slash"/>
    <contour>
      <point x="-239" y="-239" type="line"/>
      <point x="239" y="-239" type="line"/>
      <point x="239" y="-95" type="line"/>
      <point x="-239" y="-95" type="line"/>
    </contour>
  </outline>
</glyph>
<glyph name="bracketleft_bracketright.cv27" format="2">
  <advance width="1200"/>
  <outline>
    <contour>
      <point x="-960" y="-291" type="line"/>
      <point x="-960" y="1637" type="line"/>
      <point x="960" y="1637" type="line"/>
      <point x="960" y="-291" type="line"/>
    </contour>
    <contour>
      <point x="-800" y="-133" type="line"/>
      <point x="800" y="-133" type="line"/>
      <point x="800" y="1479" type="line" name=".hr01"/>
      <point x="-800" y="1479" type="line"/>
    </contour>
  </outline>
</glyph>
<glyph name="caron.salt" format="2">
  <advance width="1200"/>
  <outline>
    <contour>
      <point x="480" y="1734" type="line"/>
      <point x="640.49" y="1734" type="line"/>
      <point x="640.49" y="1500" type="line"/>
      <point x="539.49" y="1253" type="line"/>
      <point x="447" y="1253" type="line"/>
      <point x="480" y="1500" type="line"/>
    </contour>
  </outline>
</glyph>
<glyph name="dollar_greater.liga" format="2">
  <advance width="1200"/>
  <outline>
    <contour>
      <point x="-359" y="1346" type="line"/>
      <point x="260" y="1346" type="line"/>
      <point x="965" y="665" type="line"/>
      <point x="965" y="580" type="line"/>
      <point x="388" y="23" type="line"/>
      <point x="291" y="127" type="line"/>
      <point x="802" y="623" type="line"/>
      <point x="200" y="1202" type="line"/>
      <point x="-664" y="1202" type="line"/>
      <point x="-723" y="1139" type="line"/>
      <point x="-723" y="868" type="line"/>
      <point x="-645" y="753" type="line"/>
      <point x="-144" y="753" type="line"/>
      <point x="-3" y="541" type="line"/>
      <point x="-3" y="145" type="line"/>
      <point x="-143" y="0" type="line" name=".hr01"/>
      <point x="-359" y="0" type="line"/>
      <point x="-359" y="-288" type="line"/>
      <point x="-523" y="-288" type="line"/>
      <point x="-523" y="0" type="line"/>
      <point x="-796" y="0" type="line"/>
      <point x="-883" y="123" type="line"/>
      <point x="-783" y="228" type="line"/>
      <point x="-721" y="144" type="line"/>
      <point x="-211" y="144" type="line"/>
      <point x="-163" y="185" type="line"/>
      <point x="-163" y="525" type="line"/>
      <point x="-223" y="609" type="line"/>
      <point x="-723" y="609" type="line"/>
      <point x="-883" y="847" type="line"/>
      <point x="-883" y="1180" type="line"/>
      <point x="-723" y="1346" type="line"/>
      <point x="-523" y="1346" type="line"/>
      <point x="-523" y="1637" type="line"/>
      <point x="-359" y="1637" type="line"/>
    </contour>
  </outline>
</glyph>
<glyph name="equal_equal_equal.liga" format="2">
  <advance width="1200"/>
  <outline>
    <contour>
      <point x="910" y="636" type="line"/>
      <point x="910" y="476" type="line"/>
      <point x="-2110" y="476" type="line"/>
      <point x="-2110" y="636" type="line"/>
    </contour>
    <contour>
      <point x="910" y="268" type="line"/>
      <point x="910" y="108" type="line"/>
      <point x="-2110" y="108" type="line"/>
      <point x="-2110" y="268" type="line"/>
    </contour>
    <contour>
      <point x="910" y="1004" type="line"/>
      <point x="910" y="844" type="line"/>
      <point x="-2110" y="844" type="line"/>
      <point x="-2110" y="1004" type="line"/>
    </contour>
  </outline>
</glyph>
<glyph name="grave.case" format="2">
  <advance width="1200"/>
  <anchor x="604" y="2000" name="_top"/>
  <anchor x="604" y="2300" name="_bottom"/>
  <outline>
    <contour>
      <point x="770" y="2004" type="line"/>
      <point x="386" y="2189" type="line"/>
      <point x="466" y="2305" type="line"/>
      <point x="815" y="2077" type="line"/>
    </contour>
  </outline>
</glyph>
<glyph name="greater_equal.liga" format="2">
  <advance width="1200"/>
  <outline>
    <component base="greater" xOffset="-677" yOffset="163"/>
    <contour>
      <point x="390" y="697" type="line"/>
      <point x="502" y="582" type="line"/>
      <point x="-94" y="7" type="line"/>
      <point x="-205" y="122" type="line"/>
    </contour>
  </outline>
</glyph>
<glyph name="hyphen_end.seq" format="2">
  <advance width="1200"/>
  <outline>
    <contour>
      <point x="941" y="546" type="line"/>
      <point x="941" y="706" type="line"/>
      <point x="-20" y="706" type="line"/>
      <point x="-20" y="546" type="line"/>
    </contour>
  </outline>
</glyph>
<glyph name="hyphen_middle.seq" format="2">
  <advance width="1200"/>
  <outline>
    <contour>
      <point x="-20" y="546" type="line"/>
      <point x="1220" y="546" type="line"/>
      <point x="1220" y="706" type="line"/>
      <point x="-20" y="706" type="line"/>
    </contour>
  </outline>
</glyph>
<glyph name="hyphen_start.seq" format="2">
  <advance width="1200"/>
  <outline>
    <contour>
      <point x="259" y="546" type="line"/>
      <point x="1220" y="546" type="line"/>
      <point x="1220" y="706" type="line"/>
      <point x="259" y="706" type="line"/>
    </contour>
  </outline>
</glyph>
<glyph name="less_dollar.liga" format="2">
  <advance width="1200"/>
  <outline>
    <contour>
      <point x="418" y="0" type="line"/>
      <point x="-310" y="0" type="line"/>
      <point x="-961" y="633" type="line"/>
      <point x="-961" y="718" type="line"/>
      <point x="-388" y="1272" type="line" name=".hr01"/>
      <point x="-287" y="1167" type="line"/>
      <point x="-798" y="676" type="line"/>
      <point x="-250" y="144" type="line" name=".hr02"/>
      <point x="730" y="144" type="line"/>
      <point x="778" y="185" type="line"/>
      <point x="778" y="525" type="line"/>
      <point x="718" y="609" type="line"/>
      <point x="218" y="609" type="line"/>
      <point x="58" y="847" type="line"/>
      <point x="58" y="1180" type="line"/>
      <point x="218" y="1346" type="line"/>
      <point x="418" y="1346" type="line"/>
      <point x="418" y="1637" type="line"/>
      <point x="582" y="1637" type="line"/>
      <point x="582" y="1346" type="line"/>
      <point x="778" y="1346" type="line"/>
      <point x="884" y="1183" type="line"/>
      <point x="782" y="1083" type="line"/>
      <point x="701" y="1202" type="line"/>
      <point x="277" y="1202" type="line"/>
      <point x="218" y="1139" type="line"/>
      <point x="218" y="868" type="line"/>
      <point x="296" y="753" type="line"/>
      <point x="797" y="753" type="line"/>
      <point x="938" y="541" type="line"/>
      <point x="938" y="145" type="line"/>
      <point x="798" y="0" type="line"/>
      <point x="582" y="0" type="line"/>
      <point x="582" y="-288" type="line"/>
      <point x="418" y="-288" type="line"/>
    </contour>
  </outline>
</glyph>
<glyph name="less_dollar_greater.liga" format="2">
  <advance width="1200"/>
  <outline>
    <contour>
      <point x="-517" y="1346" type="line"/>
      <point x="127" y="1346" type="line"/>
      <point x="832" y="665" type="line"/>
      <point x="832" y="580" type="line"/>
      <point x="255" y="23" type="line"/>
      <point x="158" y="127" type="line"/>
      <point x="669" y="623" type="line"/>
      <point x="67" y="1202" type="line"/>
      <point x="-822" y="1202" type="line"/>
      <point x="-881" y="1139" type="line"/>
      <point x="-881" y="868" type="line"/>
      <point x="-803" y="753" type="line"/>
      <point x="-302" y="753" type="line"/>
      <point x="-161" y="541" type="line"/>
      <point x="-161" y="145" type="line"/>
      <point x="-301" y="0" type="line" name=".hr01"/>
      <point x="-517" y="0" type="line"/>
      <point x="-517" y="-288" type="line"/>
      <point x="-681" y="-288" type="line"/>
      <point x="-681" y="0" type="line"/>
      <point x="-1381" y="0" type="line"/>
      <point x="-2032" y="633" type="line"/>
      <point x="-2032" y="718" type="line"/>
      <point x="-1459" y="1272" type="line" name=".hr02"/>
      <point x="-1358" y="1167" type="line"/>
      <point x="-1869" y="676" type="line"/>
      <point x="-1321" y="144" type="line" name=".hr03"/>
      <point x="-369" y="144" type="line"/>
      <point x="-321" y="185" type="line"/>
      <point x="-321" y="525" type="line"/>
      <point x="-381" y="609" type="line"/>
      <point x="-881" y="609" type="line"/>
      <point x="-1041" y="847" type="line"/>
      <point x="-1041" y="1180" type="line"/>
      <point x="-881" y="1346" type="line"/>
      <point x="-681" y="1346" type="line"/>
      <point x="-681" y="1637" type="line"/>
      <point x="-517" y="1637" type="line"/>
    </contour>
  </outline>
</glyph>
<glyph name="less_exclam_hyphen_hyphen.liga" format="2">
  <advance width="1200"/>
  <outline>
    <contour>
      <point x="-2297" y="141" type="line"/>
      <point x="-2297" y="-42" type="line"/>
      <point x="-2503" y="-42" type="line"/>
      <point x="-2503" y="141" type="line"/>
    </contour>
    <contour>
      <point x="-2480" y="385" type="line" name=".hr01"/>
      <point x="-2480" y="1393" type="line"/>
      <point x="-2316" y="1393" type="line"/>
      <point x="-2316" y="385" type="line"/>
    </contour>
    <contour>
      <point x="-3017" y="1244" type="line"/>
      <point x="-2886" y="1134" type="line"/>
      <point x="-3292" y="704" type="line"/>
      <point x="-2661" y="704" type="line"/>
      <point x="-2661" y="548" type="line"/>
      <point x="-3293" y="548" type="line"/>
      <point x="-2886" y="118" type="line"/>
      <point x="-3017" y="8" type="line"/>
      <point x="-3568" y="626" type="line"/>
    </contour>
    <contour>
      <point x="-2126" y="548" type="line"/>
      <point x="-2126" y="704" type="line"/>
      <point x="961" y="704" type="line"/>
      <point x="961" y="548" type="line"/>
    </contour>
  </outline>
</glyph>
<glyph name="numbersign_underscore.liga" format="2">
  <advance width="1200"/>
  <outline>
    <component base="underscore" xScale="1.7141" xOffset="-769"/>
    <contour>
      <point x="-779" y="480" type="line"/>
      <point x="-482" y="480" type="line"/>
      <point x="-405" y="913" type="line"/>
      <point x="-698" y="913" type="line"/>
    </contour>
    <contour>
      <point x="-69" y="1058" type="line"/>
      <point x="-69" y="913" type="line"/>
      <point x="-256" y="913" type="line"/>
      <point x="-337" y="480" type="line"/>
      <point x="-175" y="480" type="line"/>
      <point x="-175" y="335" type="line" name=".hr01"/>
      <point x="-362" y="335" type="line"/>
      <point x="-497" y="-384" type="line"/>
      <point x="-641" y="-384" type="line"/>
      <point x="-512" y="335" type="line"/>
      <point x="-804" y="335" type="line"/>
      <point x="-864" y="0" type="line" name=".hr02"/>
      <point x="-1012" y="0" type="line"/>
      <point x="-949" y="335" type="line" name=".hr03"/>
      <point x="-1110" y="335" type="line"/>
      <point x="-1110" y="480" type="line"/>
      <point x="-923" y="480" type="line"/>
      <point x="-843" y="913" type="line"/>
      <point x="-1004" y="913" type="line"/>
      <point x="-1004" y="1058" type="line"/>
      <point x="-817" y="1058" type="line"/>
      <point x="-754" y="1393" type="line" name=".hr04"/>
      <point x="-609" y="1393" type="line"/>
      <point x="-673" y="1058" type="line" name=".hr05"/>
      <point x="-375" y="1058" type="line"/>
      <point x="-315" y="1393" type="line" name=".hr06"/>
      <point x="-167" y="1393" type="line"/>
      <point x="-231" y="1058" type="line" name=".hr07"/>
    </contour>
  </outline>
</glyph>
<glyph name="numbersign_underscore_parenleft.liga" format="2">
  <advance width="1200"/>
  <outline>
    <component base="parenleft" xOffset="-100"/>
    <contour>
      <point x="-1601" y="528" type="line"/>
      <point x="-1304" y="528" type="line"/>
      <point x="-1227" y="961" type="line"/>
      <point x="-1520" y="961" type="line"/>
    </contour>
    <contour>
      <point x="-891" y="1106" type="line"/>
      <point x="-891" y="961" type="line"/>
      <point x="-1078" y="961" type="line"/>
      <point x="-1159" y="528" type="line"/>
      <point x="-997" y="528" type="line"/>
      <point x="-997" y="383" type="line"/>
      <point x="-1184" y="383" type="line"/>
      <point x="-1292" y="-192" type="line"/>
      <point x="680" y="-192" type="line"/>
      <point x="680" y="-336" type="line"/>
      <point x="-1463" y="-336" type="line"/>
      <point x="-1334" y="383" type="line"/>
      <point x="-1626" y="383" type="line"/>
      <point x="-1686" y="48" type="line"/>
      <point x="-1834" y="48" type="line"/>
      <point x="-1771" y="383" type="line"/>
      <point x="-1932" y="383" type="line"/>
      <point x="-1932" y="528" type="line"/>
      <point x="-1745" y="528" type="line"/>
      <point x="-1665" y="961" type="line"/>
      <point x="-1826" y="961" type="line"/>
      <point x="-1826" y="1106" type="line"/>
      <point x="-1639" y="1106" type="line"/>
      <point x="-1576" y="1441" type="line"/>
      <point x="-1431" y="1441" type="line"/>
      <point x="-1495" y="1106" type="line"/>
      <point x="-1197" y="1106" type="line"/>
      <point x="-1137" y="1441" type="line"/>
      <point x="-989" y="1441" type="line"/>
      <point x="-1053" y="1106" type="line"/>
    </contour>
  </outline>
</glyph>
<glyph name="percent_percent.liga" format="2">
  <advance width="1200"/>
  <outline>
    <contour>
      <point x="-280" y="1313" type="line"/>
      <point x="-120" y="1313" type="line"/>
      <point x="-120" y="1062" type="line"/>
      <point x="-920" y="239" type="line"/>
      <point x="-920" y="40" type="line"/>
      <point x="-1080" y="40" type="line"/>
      <point x="-1080" y="278" type="line"/>
      <point x="-280" y="1101" type="line"/>
    </contour>
    <contour>
      <point x="-969" y="1167" type="line"/>
      <point x="-835" y="1167" type="line"/>
      <point x="-740" y="1074" type="line"/>
      <point x="-740" y="939" type="line"/>
      <point x="-835" y="847" type="line"/>
      <point x="-969" y="847" type="line"/>
      <point x="-1060" y="938" type="line"/>
      <point x="-1060" y="1075" type="line"/>
    </contour>
    <contour>
      <point x="-74" y="832" type="line"/>
      <point x="60" y="832" type="line"/>
      <point x="155" y="739" type="line"/>
      <point x="155" y="604" type="line"/>
      <point x="60" y="512" type="line"/>
      <point x="-74" y="512" type="line"/>
      <point x="-165" y="603" type="line"/>
      <point x="-165" y="740" type="line"/>
    </contour>
    <contour>
      <point x="831" y="490" type="line"/>
      <point x="965" y="490" type="line"/>
      <point x="1060" y="397" type="line"/>
      <point x="1060" y="262" type="line"/>
      <point x="965" y="170" type="line"/>
      <point x="831" y="170" type="line"/>
      <point x="740" y="261" type="line"/>
      <point x="740" y="398" type="line"/>
    </contour>
    <contour>
      <point x="920" y="1313" type="line"/>
      <point x="1080" y="1313" type="line"/>
      <point x="1080" y="1062" type="line"/>
      <point x="280" y="239" type="line"/>
      <point x="280" y="40" type="line"/>
      <point x="120" y="40" type="line"/>
      <point x="120" y="278" type="line"/>
      <point x="920" y="1101" type="line"/>
    </contour>
  </outline>
</glyph>
<glyph name="plus_plus.liga" format="2">
  <advance width="1200"/>
  <outline>
    <contour>
      <point x="-672" y="1055" type="line"/>
      <point x="-528" y="1055" type="line"/>
      <point x="-528" y="744" type="line"/>
      <point x="528" y="744" type="line"/>
      <point x="528" y="1055" type="line"/>
      <point x="672" y="1055" type="line"/>
      <point x="672" y="744" type="line"/>
      <point x="984" y="744" type="line"/>
      <point x="984" y="600" type="line"/>
      <point x="672" y="600" type="line"/>
      <point x="672" y="290" type="line"/>
      <point x="528" y="290" type="line"/>
      <point x="528" y="600" type="line"/>
      <point x="-528" y="600" type="line"/>
      <point x="-528" y="290" type="line"/>
      <point x="-672" y="290" type="line"/>
      <point x="-672" y="600" type="line"/>
      <point x="-984" y="600" type="line"/>
      <point x="-984" y="744" type="line"/>
      <point x="-672" y="744" type="line"/>
    </contour>
  </outline>
</glyph>
<glyph name="question_equal.liga" format="2">
  <advance width="1200"/>
  <outline>
    <component base="question" xOffset="-874"/>
    <contour>
      <point x="720" y="886" type="line"/>
      <point x="720" y="726" type="line"/>
      <point x="-61" y="726" type="line"/>
      <point x="-61" y="886" type="line"/>
    </contour>
    <contour>
      <point x="720" y="518" type="line"/>
      <point x="720" y="358" type="line"/>
      <point x="-358" y="358" type="line"/>
      <point x="-358" y="518" type="line"/>
    </contour>
  </outline>
</glyph>
<glyph name="slash_equal_end.seq" format="2">
  <advance width="1200"/>
  <outline>
    <component base="slash"/>
    <contour>
      <point x="666" y="886" type="line"/>
      <point x="-24" y="886" type="line"/>
      <point x="-24" y="726" type="line"/>
      <point x="666" y="726" type="line"/>
    </contour>
    <contour>
      <point x="496" y="518" type="line"/>
      <point x="-24" y="518" type="line"/>
      <point x="-24" y="358" type="line"/>
      <point x="496" y="358" type="line"/>
    </contour>
  </outline>
</glyph>
<glyph name="slash_equal_start.seq" format="2">
  <advance width="1200"/>
  <outline>
    <component base="slash"/>
    <contour>
      <point x="1225" y="886" type="line"/>
      <point x="640" y="886" type="line"/>
      <point x="640" y="726" type="line"/>
      <point x="1225" y="726" type="line"/>
    </contour>
    <contour>
      <point x="1225" y="518" type="line"/>
      <point x="490" y="518" type="line"/>
      <point x="490" y="358" type="line"/>
      <point x="1225" y="358" type="line"/>
    </contour>
  </outline>
</glyph>
<glyph name="slash_greater.liga" format="2">
  <advance width="1200"/>
  <outline>
    <contour>
      <point x="-773" y="-214" type="line"/>
      <point x="-895" y="-161" type="line"/>
      <point x="-25" y="1628" type="line"/>
      <point x="94" y="1567" type="line"/>
      <point x="-11" y="1352" type="line"/>
      <point x="1026" y="711" type="line"/>
      <point x="1026" y="543" type="line"/>
      <point x="260" y="63" type="line"/>
      <point x="172" y="176" type="line"/>
      <point x="891" y="625" type="line"/>
      <point x="-71" y="1227" type="line"/>
    </contour>
  </outline>
</glyph>
<glyph name="underscore_start.seq" format="2">
  <advance width="1200"/>
  <outline>
    <contour>
      <point x="100" y="-382" type="line"/>
      <point x="100" y="-222" type="line"/>
      <point x="1220" y="-222" type="line"/>
      <point x="1220" y="-382" type="line"/>
    </contour>
  </outline>
</glyph>
<glyph name="w_w_w.liga" format="2">
  <advance width="1200"/>
  <outline>
    <contour>
      <point x="185" y="0" type="line"/>
      <point x="-22" y="306" type="line"/>
      <point x="-317" y="0" type="line"/>
      <point x="-462" y="0" type="line"/>
      <point x="-581" y="180" type="line"/>
      <point x="-758" y="0" type="line"/>
      <point x="-899" y="0" type="line"/>
      <point x="-1103" y="302" type="line"/>
      <point x="-1397" y="0" type="line"/>
      <point x="-1542" y="0" type="line"/>
      <point x="-1661" y="180" type="line"/>
      <point x="-1838" y="0" type="line"/>
      <point x="-1979" y="0" type="line"/>
      <point x="-2240" y="386" type="line"/>
      <point x="-2240" y="930" type="line"/>
      <point x="-2080" y="930" type="line"/>
      <point x="-2080" y="406" type="line"/>
      <point x="-1905" y="145" type="line"/>
      <point x="-1896" y="145" type="line"/>
      <point x="-1760" y="287" type="line"/>
      <point x="-1760" y="930" type="line"/>
      <point x="-1600" y="930" type="line"/>
      <point x="-1600" y="344" type="line"/>
      <point x="-1464" y="145" type="line"/>
      <point x="-1458" y="145" type="line"/>
      <point x="-1259" y="349" type="line"/>
      <point x="-1259" y="930" type="line"/>
      <point x="-1099" y="930" type="line"/>
      <point x="-1099" y="551" type="line"/>
      <point x="-825" y="145" type="line"/>
      <point x="-816" y="145" type="line"/>
      <point x="-680" y="287" type="line"/>
      <point x="-680" y="930" type="line"/>
      <point x="-520" y="930" type="line"/>
      <point x="-520" y="344" type="line"/>
      <point x="-384" y="145" type="line"/>
      <point x="-378" y="145" type="line"/>
      <point x="-76" y="456" type="line"/>
      <point x="-76" y="930" type="line"/>
      <point x="84" y="930" type="line"/>
      <point x="84" y="406" type="line"/>
      <point x="259" y="145" type="line"/>
      <point x="268" y="145" type="line"/>
      <point x="404" y="287" type="line"/>
      <point x="404" y="930" type="line"/>
      <point x="564" y="930" type="line"/>
      <point x="564" y="344" type="line"/>
      <point x="700" y="145" type="line"/>
      <point x="706" y="145" type="line"/>
      <point x="884" y="328" type="line"/>
      <point x="884" y="930" type="line"/>
      <point x="1044" y="930" type="line"/>
      <point x="1044" y="287" type="line"/>
      <point x="767" y="0" type="line"/>
      <point x="622" y="0" type="line"/>
      <point x="503" y="180" type="line"/>
      <point x="326" y="0" type="line"/>
    </contour>
  </outline>
</glyph>
